SplineFontDB: 3.0
FontName: Nika-Regular
FullName: Nika Regular
FamilyName: Nika
Weight: Regular
Copyright: Copyright (c) 2016 Copyright Holder Persian Font Store (info@font-store.ir), with Reserved Font Name "Nika"
UComments: "2015-5-13: Created with FontForge (http://fontforge.org)"
Version: Version:1.0.0;RFB:1.2.5;Building:2016-05-24 08:43:34.340105
FONDName: RITA
ItalicAngle: 0
UnderlinePosition: 500
UnderlineWidth: 59
Ascent: 800
Descent: 500
InvalidEm: 0
sfntRevision: 0x00010000
LayerCount: 2
Layer: 0 0 "Back" 1
Layer: 1 0 "Fore" 0
PreferredKerning: 4
XUID: [1021 828 -1901974348 32649]
StyleMap: 0x0040
FSType: 0
OS2Version: 0
OS2_WeightWidthSlopeOnly: 0
OS2_UseTypoMetrics: 0
CreationTime: 1431477301
ModificationTime: 1464063214
PfmFamily: 33
TTFWeight: 400
TTFWidth: 5
LineGap: 100
VLineGap: 0
Panose: 2 0 5 3 0 0 0 0 0 0
OS2TypoAscent: 800
OS2TypoAOffset: 0
OS2TypoDescent: -500
OS2TypoDOffset: 0
OS2TypoLinegap: 100
OS2WinAscent: 1100
OS2WinAOffset: 0
OS2WinDescent: 700
OS2WinDOffset: 0
HheadAscent: 1100
HheadAOffset: 0
HheadDescent: -700
HheadDOffset: 0
OS2SubXSize: 780
OS2SubYSize: 839
OS2SubXOff: -107
OS2SubYOff: 168
OS2SupXSize: 780
OS2SupYSize: 839
OS2SupXOff: 369
OS2SupYOff: 575
OS2StrikeYSize: 59
OS2StrikeYPos: 310
OS2Vendor: 'RITA'
OS2CodePages: 00000040.00000000
OS2UnicodeRanges: 80002003.80002000.00000008.00000000
MacStyle: 0
Lookup: 4 7 1 "'ccmp' Glyph Composition/Decomposition in Arabic lookup 5" { "'ccmp' Glyph Composition/Decomposition in Arabic lookup 5-1"  } ['ccmp' ('DFLT' <'dflt' > 'arab' <'dflt' > ) ]
Lookup: 1 9 0 "'isol' Isolated Forms in Latin lookup 1" { "'isol' Isolated Forms in Latin lookup 1-1"  } ['isol' ('DFLT' <'dflt' > 'arab' <'dflt' > ) ]
Lookup: 1 9 0 "'fina' Terminal Forms in Arabic lookup 3" { "'fina' Terminal Forms in Arabic lookup 3-1"  } ['fina' ('DFLT' <'dflt' > 'arab' <'dflt' > ) ]

StartChar: _.alef.isol
Encoding: 65536 -1 0
GlifName: _.alef.isol
Width: 231
VWidth: 1304
GlyphClass: 2
Flags: HMW
LayerCount: 2
Fore
SplineSet
75 720 m 0
 75 742 82 754 96 764 c 2
 133 795 l 2
 149 809 156 791 156 782 c 2
 156 146 l 2
 156 48 131 -11 103 -20 c 0
 99 -20 96 -14 96 0 c 2
 75 715 l 2
 75 717 75 718 75 720 c 0
EndSplineSet
Colour: ffda6b
EndChar

StartChar: _.alef.fina
Encoding: 65537 -1 1
GlifName: _.alef.fina
Width: 286
VWidth: 1304
GlyphClass: 2
Flags: HMW
LayerCount: 2
Fore
SplineSet
75 721 m 0
 75 743 82 753 94 763 c 2
 134 796 l 2
 146 806 156 793 156 782 c 2
 156 203 l 2
 156 116 215 100 272 100 c 2
 286 100 l 1
 286 -0 l 1
 251 -0 l 2
 128 0 91 80 89 155 c 2
 75 715 l 2
 75 717 75 719 75 721 c 0
EndSplineSet
Colour: ffda6b
EndChar

StartChar: _.beh.isol
Encoding: 65540 -1 4
GlifName: _.beh.isol
Width: 950
VWidth: 1304
GlyphClass: 2
UnlinkRmOvrlpSave: 1
Flags: HMW
LayerCount: 2
Fore
SplineSet
75 193 m 0
 75 240 87 296 115 361 c 0
 119 367 126 371 133 367 c 2
 149 358 l 2
 160 353 157 341 153 332 c 0
 140 297 135 266 135 239 c 0
 135 112 267 70 420 70 c 0
 557 70 711 104 800 139 c 1
 798 193 785 259 758 332 c 0
 753 347 761 354 767 359 c 2
 815 400 l 2
 826 410 836 401 838 395 c 0
 856 341 875 277 875 214 c 0
 875 212 875 210 875 208 c 0
 875 206 875 203 875 200 c 0
 875 134 829 57 795 43 c 0
 701 3 552 -30 414 -30 c 0
 235 -30 75 25 75 193 c 0
EndSplineSet
Colour: ffda6b
EndChar

StartChar: _.beh.fina
Encoding: 65541 -1 5
GlifName: _.beh.fina
Width: 1029
VWidth: 1304
GlyphClass: 2
UnlinkRmOvrlpSave: 1
Flags: HMW
LayerCount: 2
Fore
SplineSet
75 193 m 0
 75 240 87 296 115 361 c 0
 119 367 126 371 133 367 c 2
 149 358 l 2
 160 353 157 341 153 332 c 0
 140 297 135 266 135 239 c 0
 135 112 267 71 420 71 c 0
 564 71 725 107 812 144 c 1
 809 162 807 182 807 203 c 0
 807 222 809 242 811 264 c 0
 812 271 812 280 822 284 c 2
 850 295 l 2
 864 300 869 293 869 283 c 0
 869 276 868 269 868 263 c 0
 868 137 914 100 1009 100 c 2
 1029 100 l 1
 1029 -0 l 1
 1005 -0 l 2
 920 0 868 24 838 71 c 1
 823 56 807 48 795 43 c 0
 701 3 552 -30 414 -30 c 0
 235 -30 75 25 75 193 c 0
EndSplineSet
Colour: ffda6b
EndChar

StartChar: _.beh.medi
Encoding: 65542 -1 6
GlifName: _.beh.medi
Width: 434
VWidth: 1304
GlyphClass: 2
UnlinkRmOvrlpSave: 1
Flags: HMW
LayerCount: 2
Fore
SplineSet
-50 50 m 0
 -50 76 -26 100 0 100 c 2
 50 100 l 2
 128 100 187 112 217 146 c 1
 214 164 212 184 212 205 c 0
 212 224 214 243 216 264 c 0
 217 271 217 280 227 284 c 2
 255 295 l 2
 269 300 274 293 274 283 c 0
 274 276 273 269 273 263 c 0
 273 137 319 100 414 100 c 2
 434 100 l 1
 434 -0 l 1
 410 -0 l 2
 331 0 281 21 250 60 c 1
 207 10 136 0 42 -0 c 2
 0 -0 l 2
 -25 0 -50 24 -50 50 c 0
EndSplineSet
Colour: ffda6b
EndChar

StartChar: _.beh.init
Encoding: 65543 -1 7
GlifName: _.beh.init
Width: 330
VWidth: 1197
GlyphClass: 1
UnlinkRmOvrlpSave: 1
Flags: HMW
LayerCount: 2
Fore
SplineSet
-50 49 m 0
 -50 76 -27 100 -1 100 c 2
 58 100 l 2
 128 100 177 114 205 135 c 1
 203 189 190 255 163 324 c 0
 159 340 166 347 172 351 c 1
 221 394 l 2
 233 405 241 394 243 388 c 0
 261 334 280 270 280 208 c 0
 280 172 274 137 258 104 c 0
 228 35 169 0 79 -0 c 2
 -1 -0 l 2
 -25 0 -50 24 -50 49 c 0
EndSplineSet
Colour: ffda6b
EndChar

StartChar: _.heh.isol
Encoding: 65544 -1 8
GlifName: _.heh.isol
Width: 754
VWidth: 1304
GlyphClass: 1
UnlinkRmOvrlpSave: 1
Flags: HMW
LayerCount: 2
Fore
SplineSet
213 420 m 0
 333 420 498 320 655 320 c 2
 670 320 l 2
 686 320 677 300 675 293 c 2
 657 236 l 1
 655 224 651 220 634 220 c 0
 620 220 607 220 592 221 c 0
 330 196 134 28 134 -107 c 0
 134 -202 229 -288 434 -288 c 0
 483 -288 539 -283 601 -272 c 0
 610 -271 624 -264 622 -278 c 1
 622 -297 l 1
 563 -349 469 -382 374 -382 c 0
 329 -382 284 -375 241 -358 c 0
 113 -308 75 -200 75 -118 c 0
 75 30 192 196 389 274 c 1
 323 298 261 320 210 320 c 0
 209 320 206 320 205 320 c 0
 173 320 150 309 123 260 c 0
 114 244 108 239 98 244 c 2
 86 251 l 2
 76 256 75 265 84 282 c 0
 102 314 147 420 213 420 c 0
EndSplineSet
Colour: ffda6b
EndChar

StartChar: _.heh.fina
Encoding: 65545 -1 9
GlifName: _.heh.fina
Width: 769
VWidth: 1304
GlyphClass: 1
UnlinkRmOvrlpSave: 1
Flags: HMW
LayerCount: 2
Fore
SplineSet
213 420 m 0
 333 420 498 320 655 320 c 2
 670 320 l 2
 686 320 677 300 675 293 c 2
 657 236 l 1
 655 224 651 220 634 220 c 0
 620 220 607 220 592 221 c 0
 581 220 570 219 559 218 c 1
 566 182 l 1
 577 120 649 100 750 100 c 2
 769 100 l 1
 769 -0 l 1
 756 -0 l 2
 617 0 527 24 505 170 c 1
 498 205 l 1
 284 156 134 12 134 -107 c 0
 134 -202 229 -288 434 -288 c 0
 483 -288 539 -283 601 -272 c 0
 610 -271 624 -264 622 -278 c 1
 622 -297 l 1
 563 -349 469 -382 374 -382 c 0
 329 -382 284 -375 241 -358 c 0
 113 -308 75 -200 75 -118 c 0
 75 30 192 196 389 274 c 1
 323 298 261 320 210 320 c 0
 209 320 206 320 205 320 c 0
 173 320 150 309 123 260 c 0
 114 244 108 239 98 244 c 2
 86 251 l 2
 76 256 75 265 84 282 c 0
 102 314 147 420 213 420 c 0
EndSplineSet
Colour: ffda6b
EndChar

StartChar: _.heh.medi
Encoding: 65546 -1 10
GlifName: _.heh.medi
Width: 734
VWidth: 1304
GlyphClass: 1
UnlinkRmOvrlpSave: 1
Flags: HMW
LayerCount: 2
Fore
SplineSet
178 420 m 0
 298 420 463 320 620 320 c 2
 634 320 l 2
 650 320 641 300 639 293 c 2
 622 236 l 2
 620 225 616 220 601 220 c 0
 573 220 548 215 526 208 c 1
 531 182 l 2
 542 120 613 100 714 100 c 2
 734 100 l 1
 734 -0 l 1
 721 -0 l 2
 582 0 492 24 470 170 c 1
 470 177 l 1
 378 113 313 0 80 -0 c 2
 -1 -0 l 2
 -26 0 -50 24 -50 50 c 0
 -49 75 -26 100 -1 100 c 2
 83 100 l 2
 291 100 355 183 434 248 c 1
 339 277 244 320 173 320 c 0
 172 320 171 320 170 320 c 0
 138 320 115 309 88 260 c 0
 79 244 73 239 63 244 c 2
 51 251 l 2
 41 256 39 265 48 282 c 0
 66 314 112 420 178 420 c 0
EndSplineSet
Colour: ffda6b
EndChar

StartChar: _.heh.init
Encoding: 65547 -1 11
GlifName: _.heh.init
Width: 693
VWidth: 1304
GlyphClass: 1
UnlinkRmOvrlpSave: 1
Flags: HMW
LayerCount: 2
Fore
SplineSet
178 420 m 0
 298 420 463 320 620 320 c 2
 634 320 l 2
 650 320 641 300 639 293 c 2
 622 236 l 2
 620 225 616 220 601 220 c 0
 399 220 403 0 80 -0 c 2
 -1 -0 l 2
 -26 0 -50 24 -50 50 c 0
 -49 75 -26 100 -1 100 c 2
 83 100 l 2
 291 100 355 183 434 248 c 1
 339 277 244 320 173 320 c 0
 172 320 171 320 170 320 c 0
 138 320 115 309 88 260 c 0
 79 244 73 239 63 244 c 2
 51 251 l 2
 41 256 39 265 48 282 c 0
 66 314 112 420 178 420 c 0
EndSplineSet
Colour: ffda6b
EndChar

StartChar: _.sin.isol
Encoding: 65548 -1 12
GlifName: _.sin.isol
Width: 1262
VWidth: 1304
GlyphClass: 1
UnlinkRmOvrlpSave: 1
Flags: HMW
LayerCount: 2
Fore
SplineSet
329 -198 m 0
 448 -198 579 -135 607 -36 c 1
 606 38 567 121 539 180 c 0
 534 190 537 200 546 207 c 2
 597 250 l 2
 606 259 616 249 618 242 c 0
 627 225 634 206 641 189 c 0
 670 128 727 100 780 100 c 0
 818 100 853 115 873 142 c 1
 903 241 l 2
 905 250 914 254 923 252 c 0
 949 244 959 243 959 233 c 0
 959 226 955 216 949 197 c 0
 944 180 942 165 942 152 c 0
 942 100 978 80 1018 80 c 0
 1054 80 1094 97 1115 123 c 1
 1116 141 1107 214 1082 274 c 0
 1077 289 1085 296 1090 301 c 2
 1140 343 l 2
 1149 350 1158 349 1162 337 c 0
 1180 283 1187 236 1187 195 c 0
 1187 48 1089 -20 1002 -20 c 0
 950 -20 902 3 881 49 c 1
 847 16 803 0 761 0 c 0
 732 0 703 7 678 22 c 1
 678 0 l 1
 668 -187 485 -298 325 -299 c 0
 197 -299 75 -240 75 -85 c 0
 75 -28 91 42 130 127 c 0
 134 134 139 139 149 134 c 2
 170 124 l 2
 177 120 177 115 173 108 c 0
 150 52 136 0 136 -46 c 0
 136 -136 190 -198 329 -198 c 0
EndSplineSet
Colour: ffda6b
EndChar

StartChar: _.sin.fina
Encoding: 65549 -1 13
GlifName: _.sin.fina
Width: 1332
VWidth: 1304
GlyphClass: 1
UnlinkRmOvrlpSave: 1
Flags: HMW
LayerCount: 2
Fore
SplineSet
329 -198 m 0
 448 -198 579 -135 607 -36 c 1
 606 38 567 121 539 180 c 0
 534 190 537 200 546 207 c 2
 597 250 l 2
 606 259 616 249 618 242 c 0
 627 225 634 206 641 189 c 0
 670 127 727 100 780 100 c 0
 818 100 853 114 873 140 c 1
 903 241 l 2
 905 248 913 256 923 252 c 2
 948 245 l 2
 959 241 961 235 957 223 c 2
 949 197 l 2
 944 180 942 164 942 151 c 0
 942 100 977 80 1017 80 c 0
 1053 80 1102 97 1125 123 c 1
 1125 125 l 1
 1116 156 1113 190 1103 232 c 0
 1102 242 1100 250 1111 256 c 2
 1140 272 l 1
 1149 278 1153 271 1154 264 c 2
 1164 226 l 1
 1187 131 1210 100 1332 100 c 1
 1332 -0 l 1
 1232 0 1185 17 1157 55 c 1
 1118 4 1056 -22 1000 -22 c 0
 948 -22 900 1 880 47 c 1
 846 15 804 0 762 -0 c 0
 733 0 703 7 678 22 c 1
 678 -0 l 1
 668 -187 485 -298 325 -299 c 0
 197 -299 75 -240 75 -85 c 0
 75 -28 91 42 130 127 c 0
 134 134 139 139 149 134 c 2
 170 124 l 2
 177 120 177 115 173 108 c 0
 150 52 136 0 136 -46 c 0
 136 -136 190 -198 329 -198 c 0
EndSplineSet
Colour: ffda6b
EndChar

StartChar: _.sin.medi
Encoding: 65550 -1 14
GlifName: _.sin.medi
Width: 866
VWidth: 1304
GlyphClass: 1
UnlinkRmOvrlpSave: 1
Flags: HMW
LayerCount: 2
Fore
SplineSet
0 -0 m 0
 -26 0 -50 24 -50 50 c 0
 -50 76 -26 100 0 100 c 0
 101 100 139 109 188 199 c 2
 221 261 l 2
 226 270 233 271 239 267 c 2
 266 251 l 2
 276 246 275 237 271 230 c 2
 221 136 l 1
 230 112 261 101 296 101 c 0
 338 101 385 117 408 144 c 1
 438 241 l 2
 440 248 447 256 457 252 c 2
 482 245 l 2
 493 241 496 235 492 223 c 2
 483 197 l 2
 478 180 476 164 476 151 c 0
 476 100 511 80 551 80 c 0
 587 80 636 97 659 123 c 1
 659 125 l 1
 651 155 646 190 637 232 c 0
 636 242 635 250 646 256 c 2
 674 272 l 1
 683 278 688 271 689 264 c 2
 698 226 l 1
 721 131 744 100 866 100 c 1
 866 -0 l 1
 766 0 719 17 691 55 c 1
 652 4 591 -22 535 -22 c 0
 482 -22 434 1 414 47 c 1
 378 15 332 -1 288 -1 c 0
 239 -1 195 19 172 58 c 1
 133 11 88 0 0 -0 c 0
 0 -0 l 0
EndSplineSet
Colour: ffda6b
EndChar

StartChar: _.sin.init
Encoding: 65551 -1 15
GlifName: _.sin.init
Width: 771
VWidth: 1304
GlyphClass: 1
UnlinkRmOvrlpSave: 1
Flags: HMW
LayerCount: 2
Fore
SplineSet
-50 50 m 0
 -50 76 -26 100 0 100 c 0
 101 100 139 109 188 199 c 2
 221 261 l 2
 226 270 233 271 239 267 c 2
 266 251 l 2
 276 246 275 237 271 230 c 2
 221 136 l 1
 231 111 261 101 296 101 c 0
 338 101 385 116 408 144 c 1
 438 241 l 2
 440 250 448 254 457 252 c 0
 483 244 493 243 493 233 c 0
 493 226 489 216 483 197 c 0
 478 180 476 165 476 152 c 0
 476 100 512 80 552 80 c 0
 588 80 628 97 649 123 c 1
 650 141 641 214 616 274 c 0
 611 289 620 296 625 301 c 2
 674 343 l 2
 683 350 692 349 696 337 c 0
 714 283 721 236 721 195 c 0
 721 48 623 -20 536 -20 c 0
 484 -20 436 3 415 49 c 1
 380 15 333 -1 288 -1 c 0
 239 -1 194 19 172 58 c 1
 133 11 88 0 -1 -0 c 0
 -26 0 -50 24 -50 50 c 0
EndSplineSet
Colour: ffda6b
EndChar

StartChar: _.sad.isol
Encoding: 65552 -1 16
GlifName: _.sad.isol
Width: 1347
VWidth: 1304
GlyphClass: 1
UnlinkRmOvrlpSave: 1
Flags: HMW
LayerCount: 2
Fore
SplineSet
678 24 m 1
 678 -180 495 -298 325 -299 c 0
 197 -299 75 -240 75 -85 c 0
 75 -28 91 42 130 127 c 0
 134 134 139 139 149 134 c 2
 170 124 l 2
 177 120 177 115 173 108 c 0
 150 52 136 0 136 -46 c 0
 136 -136 190 -198 329 -198 c 0
 448 -198 579 -135 607 -36 c 1
 606 38 567 121 539 180 c 0
 534 190 537 200 546 207 c 2
 596 250 l 2
 606 259 616 249 618 242 c 0
 627 224 635 205 642 187 c 0
 653 159 673 135 698 119 c 1
 779 222 891 392 1037 406 c 0
 1045 407 1054 407 1062 407 c 0
 1158 407 1223 355 1253 300 c 0
 1267 273 1272 247 1272 222 c 0
 1272 214 1271 205 1270 197 c 0
 1264 165 1242 109 1211 86 c 0
 1116 16 960 -20 849 -20 c 0
 776 -20 720 -4 678 24 c 1
1193 160 m 1
 1183 233 1120 299 1018 299 c 0
 904 299 820 195 743 96 c 1
 771 86 802 81 837 81 c 0
 841 81 845 81 849 81 c 0
 955 81 1093 117 1193 160 c 1
EndSplineSet
Colour: ffda6b
EndChar

StartChar: _.sad.fina
Encoding: 65553 -1 17
GlifName: _.sad.fina
Width: 1377
VWidth: 1304
GlyphClass: 1
UnlinkRmOvrlpSave: 1
Flags: HMW
LayerCount: 2
Fore
SplineSet
678 24 m 1
 678 -180 495 -298 325 -299 c 0
 197 -299 75 -240 75 -85 c 0
 75 -28 91 42 130 127 c 0
 134 134 139 139 149 134 c 2
 170 124 l 2
 177 120 177 115 173 108 c 0
 150 52 136 0 136 -46 c 0
 136 -136 190 -198 329 -198 c 0
 448 -198 579 -135 607 -36 c 1
 606 38 567 121 539 180 c 0
 534 190 537 200 546 207 c 2
 596 250 l 2
 606 259 616 249 618 242 c 0
 627 224 635 205 642 187 c 0
 653 159 673 135 698 119 c 1
 779 222 891 392 1037 406 c 0
 1045 407 1054 407 1062 407 c 0
 1158 407 1223 355 1253 300 c 0
 1267 273 1272 247 1272 222 c 0
 1272 186 1264 164 1247 133 c 1
 1270 108 1305 100 1351 100 c 2
 1377 100 l 1
 1377 -0 l 1
 1348 -0 l 2
 1267 0 1214 25 1183 68 c 1
 1087 10 950 -20 849 -20 c 0
 776 -20 720 -4 678 24 c 1
1193 160 m 1
 1183 233 1120 299 1018 299 c 0
 904 299 820 195 743 96 c 1
 771 86 802 81 837 81 c 0
 841 81 845 81 849 81 c 0
 955 81 1093 117 1193 160 c 1
EndSplineSet
Colour: ffda6b
EndChar

StartChar: _.sad.medi
Encoding: 65554 -1 18
GlifName: _.sad.medi
Width: 923
VWidth: 1304
GlyphClass: 1
UnlinkRmOvrlpSave: 1
Flags: HMW
LayerCount: 2
Fore
SplineSet
817 222 m 0
 817 186 808 163 793 132 c 1
 816 109 851 100 897 100 c 2
 923 100 l 1
 923 -0 l 1
 893 -0 l 2
 812 0 759 25 728 68 c 1
 632 10 495 -20 394 -20 c 0
 302 -20 235 6 189 50 c 1
 158 19 110 0 28 -0 c 2
 0 -0 l 2
 -25 0 -50 24 -50 50 c 0
 -50 76 -26 100 0 100 c 0
 4 100 9 100 13 100 c 0
 56 100 103 101 141 123 c 1
 126 159 119 200 119 246 c 0
 119 258 123 262 130 266 c 2
 153 276 l 2
 162 280 172 279 172 267 c 0
 174 201 200 151 244 120 c 1
 325 223 437 392 583 406 c 0
 591 407 599 407 607 407 c 0
 703 407 768 355 798 300 c 0
 812 273 817 247 817 222 c 0
738 160 m 1
 728 233 665 299 563 299 c 0
 449 299 367 194 290 97 c 1
 317 87 350 81 385 81 c 0
 388 81 391 81 394 81 c 0
 500 81 638 117 738 160 c 1
EndSplineSet
Colour: ffda6b
EndChar

StartChar: _.sad.init
Encoding: 65555 -1 19
GlifName: _.sad.init
Width: 867
VWidth: 1304
GlyphClass: 1
UnlinkRmOvrlpSave: 1
Flags: HMW
LayerCount: 2
Fore
SplineSet
-50 50 m 0
 -50 76 -26 100 0 100 c 0
 4 100 9 100 13 100 c 0
 56 100 103 101 141 123 c 1
 126 159 119 200 119 246 c 0
 119 258 123 262 130 266 c 2
 153 276 l 2
 162 280 172 279 172 267 c 0
 174 201 200 151 244 120 c 1
 325 223 437 392 583 406 c 0
 591 407 599 407 607 407 c 0
 703 407 768 355 798 300 c 0
 812 273 817 247 817 222 c 0
 817 214 816 205 815 197 c 0
 809 165 789 111 756 86 c 0
 661 16 505 -20 394 -20 c 0
 302 -20 235 6 189 50 c 1
 158 19 110 0 28 -0 c 2
 0 -0 l 2
 -25 0 -50 24 -50 50 c 0
738 160 m 1
 728 233 665 299 563 299 c 0
 449 299 367 194 290 97 c 1
 317 87 350 81 385 81 c 0
 388 81 391 81 394 81 c 0
 500 81 638 117 738 160 c 1
EndSplineSet
Colour: ffda6b
EndChar

StartChar: _.ta.isol
Encoding: 65556 -1 20
GlifName: _.ta.isol
Width: 874
VWidth: 1304
GlyphClass: 1
UnlinkRmOvrlpSave: 1
Flags: HMW
LayerCount: 2
Fore
SplineSet
362 287 m 1
 425 354 493 407 590 407 c 0
 686 407 751 355 781 300 c 0
 794 274 799 249 799 224 c 0
 799 186 783 144 741 107 c 1
 644 39 505 0 379 0 c 0
 252 0 172 16 88 54 c 0
 79 58 72 65 77 79 c 2
 100 138 l 2
 106 153 120 145 131 140 c 0
 159 128 186 119 218 112 c 1
 222 117 226 120 230 125 c 0
 235 132 242 141 248 148 c 0
 275 189 289 239 289 321 c 0
 289 461 277 614 265 718 c 0
 264 725 264 731 264 735 c 0
 264 746 267 749 277 759 c 2
 319 795 l 2
 326 802 340 801 341 789 c 0
 355 691 366 509 366 349 c 0
 366 326 364 307 362 287 c 1
717 177 m 1
 701 244 638 299 545 299 c 0
 434 299 352 199 277 103 c 1
 307 101 340 100 379 100 c 0
 486 101 619 135 717 177 c 1
EndSplineSet
Colour: ffda6b
EndChar

StartChar: _.ta.fina
Encoding: 65557 -1 21
GlifName: _.ta.fina
Width: 905
VWidth: 1304
GlyphClass: 1
UnlinkRmOvrlpSave: 1
Flags: HMW
LayerCount: 2
Fore
SplineSet
799 224 m 0
 799 196 791 169 770 138 c 1
 793 111 829 100 879 100 c 2
 905 100 l 1
 905 0 l 1
 876 0 l 2
 786 0 731 30 701 82 c 1
 609 29 489 0 379 0 c 0
 252 0 172 16 88 54 c 0
 79 58 72 65 77 79 c 2
 100 138 l 2
 106 153 120 145 131 140 c 0
 159 128 186 119 218 112 c 1
 222 117 226 120 230 125 c 0
 235 132 242 141 248 148 c 0
 275 189 289 239 289 321 c 0
 289 461 277 614 265 718 c 0
 264 725 264 731 264 735 c 0
 264 746 267 749 277 759 c 2
 319 795 l 2
 326 802 340 801 341 789 c 0
 355 691 366 509 366 349 c 0
 366 326 364 307 362 287 c 1
 425 354 493 407 590 407 c 0
 686 407 751 355 781 300 c 0
 794 274 799 249 799 224 c 0
717 177 m 1
 701 244 638 299 545 299 c 0
 434 299 352 199 277 103 c 1
 307 101 340 100 379 100 c 0
 486 101 619 135 717 177 c 1
EndSplineSet
Colour: ffda6b
EndChar

StartChar: _.ta.medi
Encoding: 65558 -1 22
GlifName: _.ta.medi
Width: 799
VWidth: 1304
GlyphClass: 1
UnlinkRmOvrlpSave: 1
Flags: HMW
LayerCount: 2
Fore
SplineSet
694 224 m 0
 694 196 685 169 664 138 c 1
 687 111 724 100 774 100 c 2
 799 100 l 1
 799 -0 l 1
 770 -0 l 2
 680 0 625 31 595 81 c 1
 467 8 326 -2 182 -2 c 0
 126 -2 70 0 13 -0 c 2
 -1 -0 l 2
 -26 0 -50 24 -50 50 c 0
 -50 76 -26 100 0 100 c 2
 21 100 l 2
 79 100 103 105 141 148 c 1
 168 189 183 239 183 322 c 0
 183 462 171 614 159 718 c 0
 158 725 158 731 158 735 c 0
 158 746 162 749 172 759 c 2
 213 795 l 2
 220 802 235 801 236 789 c 0
 250 691 260 509 260 349 c 0
 260 326 259 307 257 287 c 1
 320 354 387 407 484 407 c 0
 580 407 645 355 675 300 c 0
 688 274 694 249 694 224 c 0
611 177 m 1
 595 244 533 299 440 299 c 0
 330 299 247 199 172 103 c 1
 175 100 l 1
 324 100 453 108 611 177 c 1
EndSplineSet
Colour: ffda6b
EndChar

StartChar: _.ta.init
Encoding: 65559 -1 23
GlifName: _.ta.init
Width: 744
VWidth: 1304
GlyphClass: 1
UnlinkRmOvrlpSave: 1
Flags: HMW
LayerCount: 2
Fore
SplineSet
257 287 m 1
 320 354 387 407 484 407 c 0
 580 407 645 355 675 300 c 0
 688 274 694 249 694 224 c 0
 694 186 678 144 636 107 c 1
 497 11 342 -2 184 -2 c 0
 127 -2 70 0 13 -0 c 2
 -1 -0 l 2
 -26 0 -50 24 -50 50 c 0
 -50 76 -26 100 0 100 c 2
 21 100 l 2
 79 100 103 105 141 148 c 1
 168 189 183 239 183 322 c 0
 183 462 171 614 159 718 c 0
 158 725 158 731 158 735 c 0
 158 746 162 749 172 759 c 2
 213 795 l 2
 220 802 235 801 236 789 c 0
 250 691 260 509 260 349 c 0
 260 326 259 307 257 287 c 1
611 177 m 1
 595 244 533 299 440 299 c 0
 330 299 247 199 172 103 c 1
 175 100 l 1
 324 100 453 108 611 177 c 1
EndSplineSet
Colour: ffda6b
EndChar

StartChar: _.ein.isol
Encoding: 65560 -1 24
GlifName: _.ein.isol
Width: 697
VWidth: 1304
GlyphClass: 1
UnlinkRmOvrlpSave: 1
Flags: HMW
LayerCount: 2
Fore
SplineSet
170 410 m 0
 170 521 259 604 372 604 c 0
 419 604 469 589 519 557 c 0
 535 546 534 541 532 534 c 2
 522 508 l 2
 518 498 516 497 496 501 c 0
 474 505 451 507 429 507 c 0
 349 507 275 482 239 442 c 1
 255 371 304 298 373 268 c 1
 443 298 530 323 580 335 c 0
 587 337 593 338 598 338 c 0
 607 338 613 334 613 324 c 0
 613 320 613 316 611 311 c 0
 596 261 607 252 554 234 c 0
 518 222 470 204 421 183 c 0
 416 181 410 178 405 177 c 0
 377 165 347 151 322 136 c 0
 206 70 134 -25 134 -107 c 0
 134 -202 229 -288 434 -288 c 0
 483 -288 539 -283 601 -272 c 0
 610 -271 624 -264 622 -278 c 1
 622 -297 l 1
 563 -349 469 -382 374 -382 c 0
 329 -382 284 -375 241 -358 c 0
 113 -308 75 -200 75 -118 c 0
 75 -1 149 129 279 218 c 1
 274 218 l 1
 224 236 170 326 170 410 c 0
EndSplineSet
Colour: ffda6b
EndChar

StartChar: _.ein.fina
Encoding: 65561 -1 25
GlifName: _.ein.fina
Width: 670
VWidth: 1304
GlyphClass: 1
UnlinkRmOvrlpSave: 1
Flags: HMW
LayerCount: 2
Fore
SplineSet
75 337 m 1
 95 436 l 1
 153 468 258 514 361 514 c 0
 471 514 562 477 562 386 c 0
 562 364 557 343 551 326 c 1
 529 282 477 230 411 186 c 1
 469 138 540 100 642 100 c 2
 670 100 l 1
 670 -0 l 1
 651 -0 l 2
 500 0 413 69 342 145 c 1
 218 77 139 -21 139 -107 c 0
 139 -202 234 -288 439 -288 c 0
 488 -288 544 -283 606 -272 c 0
 615 -271 629 -264 627 -278 c 1
 627 -297 l 1
 568 -349 475 -382 380 -382 c 0
 335 -382 289 -375 246 -358 c 0
 118 -308 80 -200 80 -118 c 0
 80 -2 153 127 280 214 c 1
 223 277 165 331 75 337 c 1
195 381 m 1
 253 351 297 301 345 251 c 1
 424 287 482 330 482 363 c 0
 482 368 480 373 478 377 c 1
 455 402 416 414 368 415 c 0
 310 415 248 398 195 381 c 1
EndSplineSet
Colour: ffda6b
EndChar

StartChar: _.ein.medi
Encoding: 65562 -1 26
GlifName: _.ein.medi
Width: 622
VWidth: 1304
GlyphClass: 1
UnlinkRmOvrlpSave: 1
Flags: HMW
LayerCount: 2
Fore
SplineSet
-50 49 m 0
 -50 76 -27 100 -1 100 c 2
 62 100 l 2
 117 100 180 113 238 133 c 1
 178 191 123 246 37 251 c 1
 56 351 l 1
 114 383 219 429 322 429 c 0
 434 429 524 392 524 300 c 0
 524 278 519 258 513 241 c 1
 495 204 460 163 414 125 c 1
 456 109 504 100 563 100 c 2
 622 100 l 1
 622 -0 l 1
 532 -0 l 2
 440 0 375 27 322 64 c 1
 252 26 167 0 77 -0 c 2
 -1 -0 l 2
 -25 0 -50 24 -50 49 c 0
154 295 m 1
 214 264 263 213 328 170 c 1
 396 205 445 246 445 277 c 0
 445 282 443 286 441 290 c 1
 418 316 378 329 330 330 c 0
 272 330 208 313 154 295 c 1
EndSplineSet
Colour: ffda6b
EndChar

StartChar: _.ein.init
Encoding: 65563 -1 27
GlifName: _.ein.init
Width: 571
VWidth: 1304
GlyphClass: 1
UnlinkRmOvrlpSave: 1
Flags: HMW
LayerCount: 2
Fore
SplineSet
77 261 m 0
 77 373 164 456 279 456 c 0
 326 456 376 442 426 410 c 0
 442 399 441 394 439 385 c 2
 429 359 l 2
 425 350 423 349 403 353 c 0
 381 357 358 359 336 359 c 0
 256 359 182 334 146 294 c 1
 163 216 216 146 284 118 c 1
 338 130 395 151 486 183 c 0
 495 186 504 189 511 189 c 0
 517 189 521 187 521 179 c 0
 521 175 520 171 518 164 c 2
 504 118 l 2
 497 93 428 71 396 59 c 0
 301 25 247 0 71 -0 c 2
 -1 -0 l 1
 -26 1 -50 24 -50 50 c 0
 -49 75 -26 100 -1 100 c 2
 141 100 l 1
 107 137 77 201 77 261 c 0
EndSplineSet
Colour: ffda6b
EndChar

StartChar: _.feh.isol
Encoding: 65564 -1 28
GlifName: _.feh.isol
Width: 952
VWidth: 1304
GlyphClass: 1
UnlinkRmOvrlpSave: 1
Flags: HMW
LayerCount: 2
Fore
SplineSet
75 193 m 0
 75 240 87 296 115 361 c 0
 119 367 126 371 133 367 c 2
 149 358 l 2
 160 353 157 341 153 332 c 0
 140 297 135 266 135 239 c 0
 135 112 268 71 421 71 c 0
 552 71 697 101 787 134 c 1
 792 161 794 190 794 218 c 1
 764 207 729 200 695 200 c 0
 618 200 546 235 545 329 c 0
 545 400 605 559 701 560 c 0
 812 560 877 381 877 235 c 0
 877 191 871 154 860 120 c 0
 843 70 818 52 795 43 c 0
 701 3 552 -30 414 -30 c 0
 235 -30 75 25 75 193 c 0
607 351 m 0
 608 314 651 300 702 300 c 0
 728 300 757 304 783 310 c 1
 766 394 727 460 684 460 c 0
 654 460 607 382 607 351 c 0
EndSplineSet
Colour: ffda6b
EndChar

StartChar: _.feh.fina
Encoding: 65565 -1 29
GlifName: _.feh.fina
Width: 1056
VWidth: 1304
GlyphClass: 1
UnlinkRmOvrlpSave: 1
Flags: HMW
LayerCount: 2
Fore
SplineSet
810 50 m 1
 716 3 558 -30 414 -30 c 0
 235 -30 75 25 75 193 c 0
 75 240 87 296 115 361 c 0
 119 367 126 371 133 367 c 2
 149 358 l 2
 160 353 157 341 153 332 c 0
 140 297 134 266 134 239 c 0
 134 112 267 70 420 70 c 0
 526 70 643 91 731 116 c 1
 699 156 683 202 683 246 c 0
 683 262 685 277 689 292 c 0
 710 375 771 460 845 460 c 0
 922 460 975 340 975 288 c 0
 975 233 950 172 901 118 c 1
 938 107 983 100 1036 100 c 2
 1056 100 l 1
 1056 -0 l 1
 1032 -0 l 2
 938 0 865 19 810 50 c 1
741 254 m 0
 741 235 762 192 817 156 c 1
 871 188 907 229 917 260 c 1
 917 296 864 360 832 361 c 0
 800 361 765 311 742 261 c 0
 741 259 741 257 741 254 c 0
EndSplineSet
Colour: ffda6b
EndChar

StartChar: _.feh.medi
Encoding: 65566 -1 30
GlifName: _.feh.medi
Width: 439
VWidth: 1304
GlyphClass: 1
UnlinkRmOvrlpSave: 1
Flags: HMW
LayerCount: 2
Fore
SplineSet
227 460 m 0
 304 460 358 340 358 288 c 0
 358 233 333 172 284 118 c 1
 322 107 366 100 420 100 c 2
 439 100 l 1
 439 -0 l 1
 415 -0 l 2
 324 0 251 18 197 48 c 1
 145 18 83 0 9 -0 c 2
 -1 -0 l 2
 -26 0 -50 24 -50 50 c 0
 -50 76 -26 100 -1 100 c 0
 40 100 78 107 112 117 c 1
 81 157 66 202 66 246 c 0
 66 261 68 277 72 292 c 0
 93 375 153 460 227 460 c 0
124 254 m 0
 124 235 145 192 200 156 c 1
 254 188 290 229 300 260 c 1
 300 296 248 360 215 361 c 0
 183 361 148 311 125 261 c 0
 124 259 124 257 124 254 c 0
EndSplineSet
Colour: ffda6b
EndChar

StartChar: _.feh.init
Encoding: 65567 -1 31
GlifName: _.feh.init
Width: 412
VWidth: 1304
GlyphClass: 1
UnlinkRmOvrlpSave: 1
Flags: HMW
LayerCount: 2
Fore
SplineSet
362 236 m 0
 362 91 299 0 159 -0 c 2
 -1 -0 l 2
 -26 0 -50 24 -50 50 c 0
 -49 76 -26 100 -1 100 c 2
 138 100 l 2
 198 100 240 109 271 123 c 1
 277 154 279 186 279 218 c 1
 249 207 214 200 180 200 c 0
 103 200 31 235 30 329 c 0
 30 400 90 559 186 560 c 0
 297 560 362 382 362 236 c 0
92 351 m 0
 93 314 136 300 187 300 c 0
 213 300 242 304 268 310 c 1
 251 394 212 460 169 460 c 0
 139 460 92 382 92 351 c 0
EndSplineSet
Colour: ffda6b
EndChar

StartChar: _.qaf.isol
Encoding: 65568 -1 32
GlifName: _.qaf.isol
Width: 752
VWidth: 1304
GlyphClass: 1
UnlinkRmOvrlpSave: 1
Flags: HMW
LayerCount: 2
Fore
SplineSet
677 34 m 0
 677 -3 674 -33 665 -64 c 0
 665 -65 660 -80 660 -80 c 1
 611 -218 460 -298 323 -299 c 0
 195 -299 75 -243 75 -87 c 0
 75 -31 91 39 127 123 c 0
 131 133 136 139 147 134 c 2
 163 128 l 1
 173 123 175 114 170 103 c 0
 145 42 133 -7 133 -47 c 0
 133 -163 226 -198 326 -198 c 0
 329 -198 331 -198 334 -198 c 0
 431 -198 539 -152 586 -78 c 1
 592 -47 593 -15 593 17 c 1
 563 6 529 0 496 0 c 0
 419 0 347 34 346 129 c 0
 346 199 406 358 501 359 c 1
 612 358 677 179 677 34 c 0
407 151 m 0
 408 114 452 100 504 100 c 0
 530 100 557 103 582 109 c 1
 565 193 528 260 485 260 c 0
 455 259 407 181 407 151 c 0
EndSplineSet
Colour: ffda6b
EndChar

StartChar: _.qaf.fina
Encoding: 65569 -1 33
GlifName: _.qaf.fina
Width: 776
VWidth: 1304
GlyphClass: 1
UnlinkRmOvrlpSave: 1
Flags: HMW
LayerCount: 2
Fore
SplineSet
75 -87 m 0
 75 -31 91 39 127 123 c 0
 131 133 136 139 147 134 c 2
 163 128 l 1
 173 123 175 114 170 103 c 0
 145 42 133 -7 133 -47 c 0
 133 -163 226 -198 326 -198 c 0
 329 -198 331 -198 334 -198 c 0
 431 -198 539 -152 586 -78 c 1
 591 -53 593 -26 593 -0 c 1
 489 -0 l 1
 415 2 347 38 346 129 c 0
 346 199 406 358 501 359 c 1
 596 359 657 229 672 100 c 1
 776 100 l 1
 776 -0 l 1
 676 -0 l 1
 675 -22 671 -43 665 -64 c 0
 665 -65 660 -80 660 -80 c 1
 611 -218 460 -298 323 -299 c 0
 195 -299 75 -243 75 -87 c 0
407 151 m 0
 408 114 452 101 502 100 c 1
 585 100 l 1
 568 189 529 260 485 260 c 0
 455 259 407 181 407 151 c 0
EndSplineSet
Colour: ffda6b
EndChar

StartChar: _.kaf.isol.fa
Encoding: 65570 -1 34
GlifName: _.kaf.isol.fa
Width: 979
VWidth: 1304
GlyphClass: 1
UnlinkRmOvrlpSave: 1
Flags: HMW
LayerCount: 2
Fore
SplineSet
541 532 m 1
 695 387 780 283 780 181 c 0
 780 143 768 111 749 85 c 1
 749 84 l 1
 708 24 545 -29 390 -29 c 0
 228 -29 75 28 75 193 c 0
 75 240 87 296 115 361 c 0
 119 367 126 371 132 367 c 2
 148 358 l 2
 159 352 157 341 153 332 c 0
 140 297 134 267 134 240 c 0
 134 118 254 73 390 73 c 0
 504 73 628 105 703 149 c 0
 712 154 718 158 724 162 c 1
 706 231 632 327 462 480 c 0
 451 489 444 503 444 514 c 0
 444 516 444 519 445 521 c 2
 461 569 l 2
 471 597 470 606 520 629 c 1
 889 738 l 2
 891 739 893 739 895 739 c 0
 901 739 904 735 904 727 c 0
 904 719 900 706 895 689 c 0
 884 655 880 635 863 630 c 2
 541 532 l 1
EndSplineSet
Colour: ffda6b
EndChar

StartChar: _.kaf.isol.ar
Encoding: 65571 -1 35
GlifName: _.kaf.isol.ar
Width: 794
VWidth: 1304
GlyphClass: 1
UnlinkRmOvrlpSave: 1
Flags: HMW
LayerCount: 2
Fore
SplineSet
75 102 m 0
 75 114 80 122 92 122 c 0
 96 122 101 121 107 119 c 0
 150 105 227 80 297 80 c 0
 472 80 571 111 644 152 c 1
 644 163 644 175 644 186 c 0
 644 336 636 523 617 718 c 0
 616 724 616 728 616 732 c 0
 616 746 621 754 643 772 c 1
 666 793 l 2
 672 798 677 800 681 800 c 0
 688 800 693 794 695 782 c 0
 714 613 719 434 719 288 c 0
 719 253 718 222 718 191 c 0
 717 158 710 108 672 82 c 0
 591 27 527 -20 307 -20 c 0
 196 -20 143 0 109 21 c 0
 100 26 75 74 75 102 c 0
EndSplineSet
Colour: ffda6b
EndChar

StartChar: _.kaf.fina.fa
Encoding: 65572 -1 36
GlifName: _.kaf.fina.fa
Width: 978
VWidth: 1304
GlyphClass: 1
UnlinkRmOvrlpSave: 1
Flags: HMW
LayerCount: 2
Fore
SplineSet
75 193 m 0
 75 240 87 296 115 361 c 0
 119 367 126 371 132 367 c 2
 148 358 l 2
 159 352 157 341 153 332 c 0
 140 297 134 267 134 240 c 0
 134 118 254 73 390 73 c 0
 504 73 628 105 703 149 c 0
 712 154 718 158 724 162 c 1
 714 200 683 245 660 277 c 0
 618 331 554 396 462 480 c 0
 451 489 444 503 444 514 c 0
 444 516 444 519 445 521 c 2
 461 569 l 2
 471 597 470 606 520 629 c 1
 889 738 l 2
 891 739 893 739 895 739 c 0
 901 739 904 735 904 727 c 0
 904 719 900 706 895 689 c 0
 884 655 880 635 863 630 c 2
 541 532 l 1
 590 485 632 443 666 404 c 0
 817 240 839 100 978 100 c 1
 978 -0 l 1
 976 0 973 0 971 -0 c 0
 875 0 818 50 767 119 c 1
 762 107 756 95 749 85 c 1
 749 84 l 1
 708 24 545 -29 390 -29 c 0
 228 -29 75 28 75 193 c 0
EndSplineSet
Colour: ffda6b
EndChar

StartChar: _.kaf.fina.ar
Encoding: 65573 -1 37
GlifName: _.kaf.fina.ar
Width: 898
VWidth: 1304
GlyphClass: 1
UnlinkRmOvrlpSave: 1
Flags: HMW
LayerCount: 2
Fore
SplineSet
75 102 m 0
 75 114 80 122 92 122 c 0
 96 122 101 121 107 119 c 0
 150 105 227 80 297 80 c 0
 472 80 571 111 644 152 c 1
 644 163 644 175 644 186 c 0
 644 336 636 523 617 718 c 0
 616 724 616 728 616 732 c 0
 616 746 621 754 643 772 c 1
 666 793 l 2
 672 798 677 800 681 800 c 0
 688 800 693 794 695 782 c 0
 712 621 718 452 719 310 c 0
 721 154 754 100 898 100 c 1
 898 -0 l 1
 782 0 719 37 685 92 c 1
 681 88 677 84 672 82 c 0
 591 27 527 -20 307 -20 c 0
 196 -20 143 0 109 21 c 0
 100 26 75 74 75 102 c 0
EndSplineSet
Colour: ffda6b
EndChar

StartChar: _.kaf.medi
Encoding: 65574 -1 38
GlifName: _.kaf.medi
Width: 530
VWidth: 1304
GlyphClass: 1
UnlinkRmOvrlpSave: 1
Flags: HMW
LayerCount: 2
Fore
SplineSet
-50 50 m 0
 -50 76 -26 100 -1 100 c 2
 109 100 l 2
 199 100 238 115 270 140 c 1
 258 210 197 315 14 480 c 0
 3 489 -4 503 -4 514 c 0
 -4 516 -4 519 -3 521 c 2
 13 569 l 2
 23 597 22 606 72 629 c 1
 441 738 l 2
 443 739 445 739 447 739 c 0
 453 739 455 735 455 727 c 0
 455 719 452 706 447 689 c 0
 436 655 432 635 415 630 c 2
 93 532 l 1
 151 478 199 428 237 384 c 0
 372 229 397 100 530 100 c 1
 530 -0 l 1
 528 0 525 0 523 -0 c 0
 428 0 370 51 319 118 c 1
 291 40 216 0 130 -0 c 2
 -1 -0 l 2
 -26 0 -50 24 -50 50 c 0
EndSplineSet
Colour: ffda6b
EndChar

StartChar: _.kaf.init
Encoding: 65575 -1 39
GlifName: _.kaf.init
Width: 505
VWidth: 1304
GlyphClass: 1
UnlinkRmOvrlpSave: 1
Flags: HMW
LayerCount: 2
Fore
SplineSet
-50 50 m 0
 -50 76 -26 100 -1 100 c 2
 109 100 l 2
 199 100 238 115 270 140 c 1
 258 210 197 315 14 480 c 0
 3 489 -4 503 -4 514 c 0
 -4 516 -4 519 -3 521 c 2
 13 569 l 2
 23 597 22 606 72 629 c 1
 441 738 l 2
 443 739 445 739 447 739 c 0
 453 739 455 735 455 727 c 0
 455 719 452 706 447 689 c 0
 436 655 432 635 415 630 c 2
 93 532 l 1
 245 390 332 284 332 189 c 0
 332 66 240 0 130 -0 c 2
 -1 -0 l 2
 -26 0 -50 24 -50 50 c 0
EndSplineSet
Colour: ffda6b
EndChar

StartChar: _.kaf_hamze.isol.ar
Encoding: 65576 -1 40
GlifName: _.kaf_hamze.isol.ar
Width: 321
VWidth: 1304
GlyphClass: 1
UnlinkRmOvrlpSave: 1
Flags: HMW
LayerCount: 2
Fore
SplineSet
75 -20 m 1
 75 22 l 1
 80 22 86 21 91 21 c 0
 149 21 203 42 203 63 c 0
 203 73 189 84 157 92 c 0
 116 103 97 137 97 172 c 0
 97 215 127 259 184 259 c 0
 198 259 214 256 231 250 c 1
 231 205 l 1
 220 211 209 214 198 214 c 0
 166 214 138 193 138 171 c 0
 138 156 152 140 185 130 c 0
 224 118 246 93 246 66 c 0
 246 25 195 -20 81 -20 c 0
 79 -20 77 -20 75 -20 c 1
EndSplineSet
Colour: ffda6b
EndChar

StartChar: _.ghaf.isol
Encoding: 65577 -1 41
GlifName: _.ghaf.isol
Width: 979
VWidth: 0
GlyphClass: 1
UnlinkRmOvrlpSave: 1
Flags: HMW
LayerCount: 2
Fore
SplineSet
541 532 m 1
 695 387 780 283 780 181 c 0
 780 143 768 111 749 85 c 1
 749 84 l 1
 708 24 545 -29 390 -29 c 0
 228 -29 75 28 75 193 c 0
 75 240 87 296 115 361 c 0
 119 367 126 371 132 367 c 2
 148 358 l 2
 159 352 157 341 153 332 c 0
 140 297 134 267 134 240 c 0
 134 118 254 73 390 73 c 0
 504 73 628 105 703 149 c 0
 712 154 718 158 724 162 c 1
 706 231 632 327 462 480 c 0
 451 489 444 503 444 514 c 0
 444 516 444 519 445 521 c 2
 461 569 l 2
 471 597 470 606 520 629 c 1
 889 738 l 2
 891 739 893 739 895 739 c 0
 901 739 904 735 904 727 c 0
 904 719 900 706 895 689 c 0
 884 655 880 635 863 630 c 2
 541 532 l 1
501 711 m 0
 501 727 521 760 530 763 c 2
 813 855 l 2
 814 855 815 856 816 856 c 0
 819 856 821 854 821 850 c 0
 821 835 797 796 779 790 c 2
 514 704 l 2
 512 703 510 703 508 703 c 0
 503 703 501 706 501 711 c 0
EndSplineSet
Colour: ffda6b
EndChar

StartChar: _.ghaf.fina
Encoding: 65578 -1 42
GlifName: _.ghaf.fina
Width: 978
VWidth: 0
GlyphClass: 1
Flags: HMW
LayerCount: 2
Fore
SplineSet
75 193 m 0
 75 240 87 296 115 361 c 0
 119 367 126 371 132 367 c 2
 148 358 l 2
 159 352 157 341 153 332 c 0
 140 297 134 267 134 240 c 0
 134 118 254 73 390 73 c 0
 504 73 628 105 703 149 c 0
 712 154 718 158 724 162 c 1
 714 200 683 245 660 277 c 0
 618 331 554 396 462 480 c 0
 451 489 444 503 444 514 c 0
 444 516 444 519 445 521 c 2
 461 569 l 2
 471 597 470 606 520 629 c 1
 889 738 l 2
 891 739 893 739 895 739 c 0
 901 739 904 735 904 727 c 0
 904 719 900 706 895 689 c 0
 884 655 880 635 863 630 c 2
 541 532 l 1
 590 485 632 443 666 404 c 0
 817 240 839 100 978 100 c 1
 978 -0 l 1
 976 0 973 0 971 -0 c 0
 875 0 818 50 767 119 c 1
 762 107 756 95 749 85 c 1
 749 84 l 1
 708 24 545 -29 390 -29 c 0
 228 -29 75 28 75 193 c 0
501 711 m 0
 501 727 521 760 530 763 c 2
 813 855 l 2
 814 855 815 856 816 856 c 0
 819 856 821 854 821 850 c 0
 821 835 797 796 779 790 c 2
 514 704 l 2
 512 703 510 703 508 703 c 0
 503 703 501 706 501 711 c 0
EndSplineSet
Colour: ffda6b
EndChar

StartChar: _.lam.isol
Encoding: 65580 -1 44
GlifName: _.lam.isol
Width: 722
VWidth: 1304
GlyphClass: 1
UnlinkRmOvrlpSave: 1
Flags: HMW
LayerCount: 2
Fore
SplineSet
136 -46 m 0
 136 -137 192 -198 337 -198 c 0
 473 -198 588 -99 588 7 c 1
 566 715 l 2
 566 721 566 725 566 729 c 0
 566 743 568 749 581 759 c 2
 625 795 l 2
 637 805 647 800 647 784 c 2
 647 0 l 1
 637 -187 485 -298 325 -299 c 0
 197 -299 75 -240 75 -85 c 0
 75 -28 91 42 130 127 c 0
 134 134 138 139 147 134 c 1
 170 124 l 2
 177 120 177 115 173 108 c 0
 150 52 136 -1 136 -46 c 0
EndSplineSet
Colour: ffda6b
EndChar

StartChar: _.lam.fina
Encoding: 65581 -1 45
GlifName: _.lam.fina
Width: 809
VWidth: 1304
GlyphClass: 1
UnlinkRmOvrlpSave: 1
Flags: HMW
LayerCount: 2
Fore
SplineSet
136 -46 m 0
 136 -137 192 -198 337 -198 c 0
 473 -198 588 -99 588 7 c 1
 566 715 l 2
 566 721 566 725 566 729 c 0
 566 743 568 749 581 759 c 2
 625 795 l 2
 637 805 647 800 647 784 c 2
 647 146 l 1
 669 112 709 100 763 100 c 2
 809 100 l 1
 809 -0 l 1
 759 -0 l 2
 710 0 674 11 647 29 c 1
 647 -0 l 1
 637 -187 485 -298 325 -299 c 0
 197 -299 75 -240 75 -85 c 0
 75 -28 91 42 130 127 c 0
 134 134 138 139 147 134 c 1
 170 124 l 2
 177 120 177 115 173 108 c 0
 150 52 136 -1 136 -46 c 0
EndSplineSet
Colour: ffda6b
EndChar

StartChar: _.lam.medi
Encoding: 65582 -1 46
GlifName: _.lam.medi
Width: 354
VWidth: 1304
GlyphClass: 1
UnlinkRmOvrlpSave: 1
Flags: HMW
LayerCount: 2
Fore
SplineSet
-50 48 m 0
 -50 74 -28 100 -2 100 c 2
 10 100 l 2
 83 100 133 114 132 171 c 2
 116 715 l 2
 116 721 116 725 116 729 c 0
 116 743 118 749 131 759 c 2
 175 795 l 2
 187 805 197 800 197 784 c 2
 197 177 l 1
 215 119 259 100 328 100 c 2
 354 100 l 1
 354 -0 l 1
 324 -0 l 2
 245 0 193 23 162 64 c 1
 162 63 l 1
 119 11 63 0 8 -0 c 2
 -2 -0 l 1
 -26 1 -50 23 -50 48 c 0
EndSplineSet
Colour: ffda6b
EndChar

StartChar: _.lam.init
Encoding: 65583 -1 47
GlifName: _.lam.init
Width: 288
VWidth: 1304
GlyphClass: 1
UnlinkRmOvrlpSave: 1
Flags: HMW
LayerCount: 2
Fore
SplineSet
-50 49 m 0
 -50 76 -27 99 -2 100 c 0
 112 100 172 120 172 178 c 0
 172 180 172 182 172 184 c 2
 137 714 l 2
 137 723 136 729 136 734 c 0
 136 743 139 748 151 759 c 2
 189 793 l 2
 195 799 200 801 205 801 c 0
 212 801 216 795 217 784 c 2
 238 171 l 2
 238 168 238 166 238 163 c 0
 238 52 163 0 34 -0 c 2
 -1 -0 l 2
 -25 0 -50 24 -50 49 c 0
EndSplineSet
Colour: ffda6b
EndChar

StartChar: _.mim.isol
Encoding: 65584 -1 48
GlifName: _.mim.isol
Width: 604
VWidth: 1304
GlyphClass: 1
UnlinkRmOvrlpSave: 1
Flags: HMW
LayerCount: 2
Fore
SplineSet
75 15 m 0
 75 148 138 193 225 202 c 1
 225 218 l 2
 225 220 225 223 225 225 c 0
 225 369 281 423 344 423 c 0
 429 423 529 327 529 226 c 0
 529 207 526 187 518 168 c 0
 499 123 468 84 410 84 c 0
 405 84 399 84 393 85 c 0
 349 90 293 101 242 101 c 0
 204 101 169 95 145 75 c 1
 166 -255 l 2
 166 -258 166 -261 166 -264 c 0
 166 -284 162 -292 152 -301 c 2
 110 -338 l 2
 95 -350 87 -344 87 -324 c 2
 75 0 l 2
 75 5 75 10 75 15 c 0
270 203 m 1
 324 202 383 192 439 182 c 0
 443 181 448 181 451 181 c 0
 466 181 473 187 473 198 c 0
 473 235 393 320 333 320 c 0
 298 320 269 290 270 203 c 1
EndSplineSet
Colour: ffda6b
EndChar

StartChar: _.mim.fina
Encoding: 65585 -1 49
GlifName: _.mim.fina
Width: 598
VWidth: 1304
GlyphClass: 1
UnlinkRmOvrlpSave: 1
Flags: HMW
LayerCount: 2
Fore
SplineSet
75 80 m 0
 75 160 130 220 319 240 c 1
 326 252 336 273 341 273 c 0
 344 273 348 269 353 260 c 0
 421 142 470 100 598 100 c 1
 598 -0 l 1
 557 0 525 2 495 7 c 1
 457 -83 399 -122 347 -122 c 0
 286 -122 233 -67 233 21 c 0
 233 56 241 95 260 139 c 1
 222 137 178 129 144 114 c 1
 169 -255 l 2
 169 -258 169 -261 169 -264 c 0
 169 -284 165 -292 155 -301 c 2
 112 -338 l 2
 98 -350 90 -344 89 -324 c 2
 75 75 l 2
 75 77 75 78 75 80 c 0
302 53 m 0
 302 1 331 -20 366 -20 c 0
 396 -20 430 -5 452 21 c 1
 405 41 370 77 329 140 c 1
 321 140 l 1
 307 104 302 76 302 53 c 0
EndSplineSet
Colour: ffda6b
EndChar

StartChar: _.mim.medi
Encoding: 65586 -1 50
GlifName: _.mim.medi
Width: 687
VWidth: 1304
GlyphClass: 1
UnlinkRmOvrlpSave: 1
Flags: HMW
LayerCount: 2
Fore
SplineSet
-50 50 m 0
 -50 75 -25 99 -2 100 c 0
 121 100 159 150 197 210 c 2
 250 295 l 2
 265 318 298 367 348 367 c 0
 359 367 372 364 385 358 c 0
 434 336 477 278 497 214 c 0
 498 210 499 206 500 202 c 0
 522 131 568 100 687 100 c 1
 687 -0 l 1
 606 1 534 13 490 61 c 1
 472 24 438 -16 376 -16 c 0
 360 -16 341 -12 321 -6 c 0
 279 8 219 38 185 65 c 1
 147 33 89 0 0 -0 c 1
 -25 1 -50 24 -50 50 c 0
233 152 m 1
 267 125 353 81 402 81 c 0
 403 81 l 0
 423 81 430 93 430 112 c 0
 430 160 376 249 333 260 c 0
 330 261 326 261 323 261 c 0
 297 261 284 234 269 209 c 2
 233 152 l 1
EndSplineSet
Colour: ffda6b
EndChar

StartChar: _.mim.init
Encoding: 65587 -1 51
GlifName: _.mim.init
Width: 558
VWidth: 1304
GlyphClass: 1
UnlinkRmOvrlpSave: 1
Flags: HMW
LayerCount: 2
Fore
SplineSet
-50 50 m 0
 -50 75 -25 99 -2 100 c 0
 121 100 159 150 197 210 c 2
 250 295 l 2
 265 318 298 367 348 367 c 0
 359 367 372 364 385 358 c 0
 453 326 508 229 508 140 c 0
 508 115 504 91 494 69 c 0
 476 30 441 -16 376 -16 c 0
 359 -16 342 -13 321 -6 c 0
 279 8 219 38 185 65 c 1
 147 33 89 0 0 -0 c 1
 -25 1 -50 24 -50 50 c 0
233 152 m 1
 267 125 353 81 402 81 c 0
 403 81 l 0
 423 81 430 93 430 112 c 0
 430 160 376 249 333 260 c 0
 330 261 326 261 323 261 c 0
 297 261 284 234 269 209 c 2
 233 152 l 1
EndSplineSet
Colour: ffda6b
EndChar

StartChar: _.nun.isol
Encoding: 65588 -1 52
GlifName: _.nun.isol
Width: 753
VWidth: 1305
GlyphClass: 1
UnlinkRmOvrlpSave: 1
Flags: HMW
LayerCount: 2
Fore
SplineSet
678 15 m 0
 678 -183 487 -298 324 -299 c 0
 196 -299 75 -240 75 -85 c 0
 75 -28 92 42 130 127 c 0
 134 134 138 139 148 134 c 2
 169 124 l 2
 176 120 176 115 174 108 c 0
 150 52 136 -1 136 -47 c 0
 136 -137 191 -198 330 -198 c 0
 448 -198 578 -135 606 -36 c 1
 605 38 566 121 538 180 c 0
 533 190 538 200 547 207 c 2
 596 250 l 2
 606 259 615 249 617 242 c 0
 651 171 678 95 678 15 c 0
EndSplineSet
Colour: ffda6b
EndChar

StartChar: _.nun.fina
Encoding: 65589 -1 53
GlifName: _.nun.fina
Width: 774
VWidth: 1413
GlyphClass: 1
UnlinkRmOvrlpSave: 1
Flags: HMW
LayerCount: 2
Fore
SplineSet
330 -198 m 0
 448 -198 578 -135 606 -36 c 1
 605 38 566 121 538 180 c 0
 533 190 538 200 547 207 c 2
 596 250 l 2
 606 259 615 249 617 242 c 0
 652 172 657 100 774 100 c 1
 774 -0 l 1
 770 -0 l 2
 732 0 702 6 677 18 c 1
 677 -0 l 1
 667 -187 484 -298 324 -299 c 0
 196 -299 75 -240 75 -85 c 0
 75 -28 92 42 130 127 c 0
 134 134 138 139 148 134 c 2
 169 124 l 2
 176 120 176 115 174 108 c 0
 150 52 136 -1 136 -47 c 0
 136 -137 191 -198 330 -198 c 0
EndSplineSet
Colour: ffda6b
EndChar

StartChar: _.vav.isol
Encoding: 65590 -1 54
GlifName: _.vav.isol
Width: 594
VWidth: 1304
GlyphClass: 1
UnlinkRmOvrlpSave: 1
Flags: HMW
LayerCount: 2
Fore
SplineSet
75 -260 m 1
 180 -250 374 -187 444 -20 c 1
 444 -6 443 8 442 20 c 1
 406 3 370 0 321 0 c 2
 318 0 l 1
 226 2 190 64 190 137 c 0
 190 239 260 361 343 361 c 0
 428 361 518 230 519 33 c 1
 509 -138 371 -301 244 -301 c 1
 75 -288 l 1
 75 -260 l 1
249 154 m 0
 249 125 268 100 320 100 c 0
 357 100 394 102 426 116 c 1
 403 206 360 260 326 260 c 0
 295 260 249 200 249 154 c 0
EndSplineSet
Colour: ffda6b
EndChar

StartChar: _.vav.fina
Encoding: 65591 -1 55
GlifName: _.vav.fina
Width: 604
VWidth: 1304
GlyphClass: 1
UnlinkRmOvrlpSave: 1
Flags: HMW
LayerCount: 2
Fore
SplineSet
75 -260 m 1
 180 -250 374 -187 444 -20 c 1
 444 -0 l 1
 318 -0 l 1
 226 2 190 64 190 137 c 0
 190 239 260 361 343 361 c 0
 418 361 498 260 516 100 c 1
 604 100 l 1
 604 -0 l 1
 516 -0 l 1
 491 -159 362 -301 244 -301 c 1
 75 -288 l 1
 75 -260 l 1
249 153 m 0
 249 123 268 100 321 100 c 2
 430 100 l 1
 408 200 363 260 326 260 c 0
 295 260 249 199 249 153 c 0
EndSplineSet
Colour: ffda6b
EndChar

StartChar: _.dal.isol
Encoding: 65592 -1 56
GlifName: _.dal.isol
Width: 540
VWidth: 1304
GlyphClass: 1
UnlinkRmOvrlpSave: 1
Flags: HMW
LayerCount: 2
Fore
SplineSet
75 86 m 2
 75 130 l 2
 75 139 74 147 84 149 c 2
 107 154 l 2
 116 156 121 153 121 143 c 0
 121 97 170 80 227 80 c 0
 307 80 403 112 400 140 c 1
 384 209 326 293 220 374 c 0
 213 379 211 385 211 391 c 0
 211 398 215 405 219 411 c 2
 244 454 l 2
 253 469 265 465 274 459 c 0
 425 340 465 228 465 147 c 0
 465 129 463 113 460 98 c 0
 445 24 334 -20 235 -20 c 0
 151 -20 75 12 75 86 c 2
EndSplineSet
Colour: ffda6b
EndChar

StartChar: _.dal.fina
Encoding: 65593 -1 57
GlifName: _.dal.fina
Width: 613
VWidth: 1304
GlyphClass: 1
UnlinkRmOvrlpSave: 1
Flags: HMW
LayerCount: 2
Fore
SplineSet
75 86 m 2
 75 130 l 2
 75 139 76 144 86 148 c 2
 106 154 l 2
 116 158 121 153 121 143 c 0
 121 97 169 80 226 80 c 0
 290 80 364 101 389 124 c 1
 330 383 l 2
 325 401 328 410 337 417 c 2
 377 455 l 2
 389 466 397 463 402 449 c 1
 452 230 l 2
 468 161 489 100 613 100 c 1
 613 -0 l 1
 601 -0 l 2
 523 0 472 19 436 52 c 1
 394 6 310 -21 234 -21 c 0
 150 -21 75 12 75 86 c 2
EndSplineSet
Colour: ffda6b
EndChar

StartChar: _.ree.isol
Encoding: 65594 -1 58
GlifName: _.ree.isol
Width: 594
VWidth: 1304
GlyphClass: 1
UnlinkRmOvrlpSave: 1
Flags: HMW
LayerCount: 2
Fore
SplineSet
75 -260 m 1
 185 -249 388 -182 452 0 c 1
 446 55 421 133 380 215 c 0
 375 231 383 238 388 242 c 2
 437 285 l 2
 449 295 457 285 459 279 c 0
 500 203 519 117 519 52 c 0
 519 -126 375 -301 244 -301 c 1
 75 -288 l 1
 75 -260 l 1
EndSplineSet
Colour: ffda6b
EndChar

StartChar: _.ree.fina
Encoding: 65595 -1 59
GlifName: _.ree.fina
Width: 634
VWidth: 1304
GlyphClass: 1
UnlinkRmOvrlpSave: 1
Flags: HMW
LayerCount: 2
Fore
SplineSet
75 -260 m 1
 185 -249 392 -181 454 5 c 1
 448 62 427 123 406 172 c 0
 401 187 409 194 414 199 c 2
 463 241 l 2
 475 252 483 241 485 235 c 0
 506 176 520 100 634 100 c 1
 634 -0 l 1
 630 -0 l 2
 582 0 546 11 519 28 c 1
 519 23 l 1
 505 -144 368 -301 244 -301 c 1
 75 -288 l 1
 75 -260 l 1
EndSplineSet
Colour: ffda6b
EndChar

StartChar: _.he8.isol
Encoding: 65596 -1 60
GlifName: _.he8.isol
Width: 495
VWidth: 1304
GlyphClass: 1
UnlinkRmOvrlpSave: 1
Flags: HMW
LayerCount: 2
Fore
SplineSet
420 189 m 0
 420 88 364 0 241 0 c 2
 228 0 l 2
 227 0 226 0 225 0 c 0
 147 0 75 50 75 143 c 0
 75 146 75 149 75 152 c 0
 79 214 99 274 174 377 c 1
 152 394 l 2
 145 400 142 405 142 410 c 0
 142 417 146 425 150 431 c 2
 176 475 l 2
 185 489 199 486 206 479 c 0
 310 398 420 337 420 189 c 0
135 154 m 0
 135 122 159 100 229 100 c 0
 323 100 356 126 356 162 c 0
 356 211 296 277 238 324 c 1
 233 329 l 1
 191 276 135 203 135 154 c 0
EndSplineSet
Colour: ffda6b
EndChar

StartChar: _.he8.fina
Encoding: 65597 -1 61
GlifName: _.he8.fina
Width: 505
VWidth: 1304
GlyphClass: 1
UnlinkRmOvrlpSave: 1
Flags: HMW
LayerCount: 2
Fore
SplineSet
75 192 m 0
 76 257 172 324 250 365 c 1
 245 396 l 2
 244 403 249 413 254 417 c 2
 298 454 l 2
 307 460 315 456 316 445 c 2
 354 202 l 2
 365 134 367 100 481 100 c 2
 505 100 l 1
 505 -0 l 1
 481 -0 l 2
 349 0 312 39 292 113 c 1
 258 98 221 91 188 91 c 0
 148 91 114 102 96 122 c 0
 79 142 75 166 75 192 c 0
118 193 m 1
 133 181 161 173 193 173 c 0
 219 173 249 179 277 192 c 1
 260 300 l 1
 197 270 132 224 118 193 c 1
EndSplineSet
Colour: ffda6b
EndChar

StartChar: _.he8.medi
Encoding: 65598 -1 62
GlifName: _.he8.medi
Width: 540
VWidth: 1304
GlyphClass: 1
UnlinkRmOvrlpSave: 1
Flags: HMW
LayerCount: 2
Fore
SplineSet
-50 50 m 0
 -49 76 -25 100 0 100 c 0
 25 100 73 103 125 109 c 1
 139 247 219 357 285 423 c 0
 305 443 317 453 327 453 c 0
 339 453 347 439 362 413 c 1
 397 337 419 297 419 241 c 0
 419 180 392 135 350 100 c 1
 540 100 l 1
 540 -0 l 1
 434 -0 l 1
 447 -21 454 -44 454 -70 c 0
 454 -92 449 -116 439 -141 c 1
 419 -181 374 -202 325 -202 c 0
 242 -202 144 -139 126 10 c 1
 80 3 36 0 0 -0 c 0
 -25 0 -50 24 -50 50 c 0
170 117 m 1
 264 134 359 164 359 215 c 0
 359 234 348 286 313 336 c 1
 247 283 197 197 170 117 c 1
347 -105 m 0
 361 -105 391 -101 391 -85 c 0
 391 -36 274 8 205 20 c 0
 203 20 195 21 189 22 c 1
 201 -52 287 -105 347 -105 c 0
EndSplineSet
Colour: ffda6b
EndChar

StartChar: _.he8.init
Encoding: 65599 -1 63
GlifName: _.he8.init
Width: 625
VWidth: 1304
GlyphClass: 1
UnlinkRmOvrlpSave: 1
Flags: HMW
LayerCount: 2
Fore
SplineSet
-50 49 m 0
 -50 76 -27 100 -1 100 c 0
 36 100 76 106 113 117 c 1
 112 118 110 119 109 119 c 0
 71 144 56 188 56 232 c 0
 56 256 60 280 68 301 c 0
 91 361 126 406 162 434 c 1
 181 530 l 1
 447 389 575 268 575 160 c 0
 575 138 569 117 559 96 c 1
 534 33 482 11 420 11 c 0
 358 11 285 33 223 60 c 1
 161 18 83 0 -1 -0 c 0
 -25 0 -50 24 -50 49 c 0
278 270 m 0
 278 319 264 358 220 358 c 0
 176 358 122 317 122 273 c 0
 122 225 186 196 228 173 c 1
 262 200 278 219 278 270 c 0
345 319 m 1
 341 254 327 184 300 140 c 1
 349 121 401 106 444 106 c 0
 469 106 491 111 509 123 c 1
 513 173 442 249 345 319 c 1
EndSplineSet
Colour: ffda6b
EndChar

StartChar: _.yeh.fina
Encoding: 65600 -1 64
GlifName: _.yeh.fina
Width: 765
VWidth: 1304
GlyphClass: 1
UnlinkRmOvrlpSave: 1
Flags: HMW
LayerCount: 2
Fore
SplineSet
75 -73 m 0
 75 -2 96 87 147 196 c 0
 151 205 156 208 166 204 c 2
 186 194 l 2
 193 190 194 185 190 178 c 0
 153 95 137 28 137 -26 c 0
 137 -148 219 -200 322 -200 c 0
 401 -200 493 -169 573 -116 c 1
 585 -105 591 -95 591 -84 c 0
 591 -53 541 -17 433 40 c 0
 419 49 421 59 422 66 c 1
 422 90 l 1
 423 104 428 118 429 133 c 0
 431 143 435 158 449 158 c 0
 452 158 455 157 459 156 c 0
 572 108 611 101 732 101 c 0
 742 101 753 101 765 101 c 1
 765 1 l 1
 723 1 686 2 652 7 c 1
 672 -17 682 -41 682 -66 c 0
 682 -96 667 -126 638 -157 c 0
 555 -247 426 -301 312 -301 c 0
 184 -301 75 -232 75 -73 c 0
EndSplineSet
Colour: ffda6b
EndChar

StartChar: _.yeh.isol
Encoding: 65601 -1 65
GlifName: _.yeh.isol
Width: 807
VWidth: 1304
GlyphClass: 1
UnlinkRmOvrlpSave: 1
Flags: HMW
LayerCount: 2
Fore
SplineSet
75 -74 m 0
 75 -3 97 87 148 196 c 0
 152 205 156 208 166 204 c 2
 187 194 l 2
 194 190 195 185 191 178 c 0
 154 95 138 28 138 -26 c 0
 138 -148 219 -200 322 -200 c 0
 403 -200 497 -168 578 -112 c 1
 595 -99 603 -87 603 -78 c 0
 603 -51 540 -38 469 -25 c 0
 419 -16 399 24 399 76 c 0
 399 107 406 142 418 177 c 0
 453 272 523 360 596 360 c 0
 643 360 690 324 732 231 c 1
 705 199 l 1
 665 239 629 255 598 255 c 0
 539 255 498 200 475 154 c 0
 469 141 466 128 466 117 c 0
 466 95 478 79 509 75 c 0
 605 65 694 21 694 -50 c 0
 694 -79 678 -113 642 -152 c 1
 559 -245 427 -300 311 -300 c 0
 183 -300 75 -233 75 -74 c 0
EndSplineSet
Colour: ffda6b
EndChar

StartChar: _.hamze.isol
Encoding: 65602 -1 66
GlifName: _.hamze.isol
Width: 513
VWidth: 1304
GlyphClass: 2
Flags: HMW
LayerCount: 2
Fore
SplineSet
75 66 m 2
 74 73 76 84 82 88 c 0
 108 105 135 122 165 138 c 1
 122 181 102 234 102 283 c 0
 102 362 155 431 252 431 c 0
 284 431 321 424 363 406 c 0
 377 401 377 396 375 386 c 1
 362 353 l 1
 357 344 357 336 343 340 c 0
 324 344 305 346 288 346 c 0
 224 346 180 317 180 277 c 0
 180 248 203 214 261 181 c 1
 293 194 427 240 431 209 c 2
 437 173 l 2
 438 166 438 152 431 151 c 0
 313 120 213 80 106 0 c 0
 99 -5 84 1 83 8 c 2
 75 66 l 2
EndSplineSet
Colour: ffda6b
EndChar

StartChar: _.keshide.medi
Encoding: 65603 -1 67
GlifName: _.keshide.medi
Width: 235
VWidth: 1304
GlyphClass: 2
Flags: HMW
LayerCount: 2
Fore
SplineSet
-12 100 m 2
 235 100 l 1
 235 0 l 1
 -12 0 l 2
 -24 0 -33 5 -40 15 c 0
 -47 25 -50 37 -50 50 c 0
 -50 63 -47 75 -40 85 c 0
 -33 95 -24 100 -12 100 c 2
EndSplineSet
Colour: ffda6b
EndChar

StartChar: _.dot.1u
Encoding: 65604 -1 68
GlifName: _.dot.1u
Width: 0
VWidth: 1304
GlyphClass: 2
Flags: HMW
LayerCount: 2
Fore
SplineSet
5 61 m 2
 -2 68 -2 83 5 90 c 2
 60 145 l 2
 67 152 81 152 88 145 c 2
 144 90 l 2
 151 83 151 68 144 61 c 2
 88 6 l 2
 81 -1 67 -1 60 6 c 2
 5 61 l 2
EndSplineSet
Colour: ffda6b
EndChar

StartChar: _.dot.2u
Encoding: 65605 -1 69
GlifName: _.dot.2u
Width: 0
VWidth: 1304
GlyphClass: 2
UnlinkRmOvrlpSave: 1
Flags: HMW
LayerCount: 2
Fore
SplineSet
5 56 m 2
 -2 63 -2 75 5 82 c 2
 56 134 l 2
 63 141 75 141 82 134 c 2
 134 82 l 2
 141 75 141 63 134 56 c 2
 82 5 l 2
 75 -2 63 -2 56 5 c 2
 5 56 l 2
155 56 m 2
 148 63 148 75 155 82 c 2
 206 134 l 2
 213 141 225 141 232 134 c 2
 284 82 l 2
 291 75 291 63 284 56 c 2
 232 5 l 2
 225 -2 213 -2 206 5 c 2
 155 56 l 2
EndSplineSet
Colour: ffda6b
EndChar

StartChar: _.dot.3u
Encoding: 65606 -1 70
GlifName: _.dot.3u
Width: 0
VWidth: 1304
GlyphClass: 2
UnlinkRmOvrlpSave: 1
Flags: HMW
LayerCount: 2
Fore
SplineSet
5 56 m 2
 -2 63 -2 75 5 82 c 2
 56 134 l 2
 63 141 75 141 82 134 c 2
 134 82 l 2
 141 75 141 63 134 56 c 2
 82 5 l 2
 75 -2 63 -2 56 5 c 2
 5 56 l 2
89 191 m 2
 83 198 83 208 89 215 c 2
 135 261 l 2
 141 267 152 267 158 261 c 2
 204 215 l 2
 211 208 211 198 204 191 c 2
 158 145 l 2
 152 139 141 139 135 145 c 2
 89 191 l 2
155 56 m 2
 148 63 148 75 155 82 c 2
 206 134 l 2
 213 141 225 141 232 134 c 2
 284 82 l 2
 291 75 291 63 284 56 c 2
 232 5 l 2
 225 -2 213 -2 206 5 c 2
 155 56 l 2
EndSplineSet
Colour: ffda6b
EndChar

StartChar: _.dot.1d
Encoding: 65607 -1 71
GlifName: _.dot.1d
Width: 0
VWidth: 1304
GlyphClass: 2
Flags: HMW
LayerCount: 2
Fore
SplineSet
5 -63 m 2
 60 -8 l 2
 67 -1 81 -1 88 -8 c 2
 144 -63 l 2
 151 -70 151 -82 144 -91 c 2
 88 -145 l 2
 81 -154 67 -154 60 -145 c 2
 5 -91 l 2
 -2 -82 -2 -70 5 -63 c 2
EndSplineSet
Colour: ffda6b
EndChar

StartChar: _.dot.2d
Encoding: 65608 -1 72
GlifName: _.dot.2d
Width: 0
VWidth: 1304
GlyphClass: 2
UnlinkRmOvrlpSave: 1
Flags: HMW
LayerCount: 2
Fore
SplineSet
5 -58 m 2
 56 -6 l 2
 63 1 75 1 82 -6 c 2
 134 -58 l 2
 141 -65 141 -77 134 -84 c 2
 82 -136 l 2
 75 -143 63 -143 56 -136 c 2
 5 -84 l 2
 -2 -77 -2 -65 5 -58 c 2
155 -58 m 2
 206 -6 l 2
 213 1 225 1 232 -6 c 2
 284 -58 l 2
 291 -65 291 -77 284 -84 c 2
 232 -136 l 2
 225 -143 213 -143 206 -136 c 2
 155 -84 l 2
 148 -77 148 -65 155 -58 c 2
EndSplineSet
Colour: ffda6b
EndChar

StartChar: _.dot.3d
Encoding: 65609 -1 73
GlifName: _.dot.3d
Width: 0
VWidth: 1304
GlyphClass: 2
UnlinkRmOvrlpSave: 1
Flags: HMW
LayerCount: 2
Fore
SplineSet
5 -58 m 2
 56 -6 l 2
 63 1 75 1 82 -6 c 2
 134 -58 l 2
 141 -65 141 -77 134 -84 c 2
 82 -136 l 2
 75 -143 63 -143 56 -136 c 2
 5 -84 l 2
 -2 -77 -2 -65 5 -58 c 2
86 -191 m 2
 131 -145 l 2
 137 -139 149 -139 155 -145 c 2
 200 -191 l 2
 206 -198 206 -209 200 -216 c 2
 155 -261 l 2
 149 -267 137 -267 131 -261 c 2
 86 -216 l 2
 79 -209 79 -198 86 -191 c 2
155 -58 m 2
 206 -6 l 2
 213 1 225 1 232 -6 c 2
 284 -58 l 2
 291 -65 291 -77 284 -84 c 2
 232 -136 l 2
 225 -143 213 -143 206 -136 c 2
 155 -84 l 2
 148 -77 148 -65 155 -58 c 2
EndSplineSet
Colour: ffda6b
EndChar

StartChar: _.num.1
Encoding: 65612 -1 76
GlifName: _.num.1
Width: 312
VWidth: 1331
GlyphClass: 2
Flags: HMW
LayerCount: 2
Fore
SplineSet
75 636 m 0
 75 647 83 655 105 674 c 2
 135 702 l 2
 142 708 148 710 153 710 c 0
 160 710 164 704 167 693 c 0
 227 509 237 350 237 119 c 0
 237 83 236 45 236 5 c 0
 236 -4 206 -25 183 -25 c 0
 169 -25 156 -17 156 5 c 0
 156 166 157 361 78 623 c 0
 76 628 75 632 75 636 c 0
EndSplineSet
Colour: ffda6b
EndChar

StartChar: _.num.2
Encoding: 65613 -1 77
GlifName: _.num.2
Width: 604
VWidth: 1331
GlyphClass: 2
Flags: HMW
LayerCount: 2
Fore
SplineSet
153 710 m 0
 163 710 167 694 171 683 c 1
 171 686 l 1
 176 661 186 636 192 612 c 0
 226 521 289 479 343 479 c 0
 397 479 443 520 443 595 c 0
 443 613 441 633 435 654 c 0
 431 666 435 672 441 677 c 2
 491 709 l 2
 500 714 508 719 513 705 c 0
 524 663 529 625 529 590 c 0
 529 437 435 359 336 359 c 0
 299 359 262 370 228 393 c 1
 235 310 237 221 237 119 c 0
 237 83 236 45 236 5 c 0
 236 -4 206 -25 183 -25 c 0
 169 -25 156 -17 156 5 c 0
 156 166 157 361 78 623 c 0
 76 628 75 632 75 636 c 0
 75 647 83 655 105 674 c 2
 135 702 l 2
 142 708 148 710 153 710 c 0
EndSplineSet
Colour: ffda6b
EndChar

StartChar: _.num.3
Encoding: 65614 -1 78
GlifName: _.num.3
Width: 785
VWidth: 1331
GlyphClass: 2
Flags: HMW
LayerCount: 2
Fore
SplineSet
75 636 m 0
 75 647 83 655 105 674 c 2
 135 702 l 2
 142 708 148 710 153 710 c 0
 168 710 175 671 178 657 c 0
 188 627 196 597 202 567 c 1
 229 504 272 475 311 475 c 0
 355 475 393 514 393 586 c 0
 393 606 390 629 384 654 c 0
 382 666 384 672 391 677 c 2
 442 709 l 2
 449 714 458 719 463 705 c 0
 475 657 480 613 480 575 c 0
 480 563 480 552 479 541 c 1
 501 519 526 509 548 509 c 0
 590 509 624 547 624 615 c 0
 624 635 621 658 614 684 c 0
 612 696 615 701 622 706 c 2
 672 740 l 2
 679 745 688 748 693 736 c 0
 705 689 710 647 710 609 c 0
 710 464 631 389 546 389 c 0
 510 389 474 402 441 429 c 1
 410 382 364 359 316 359 c 0
 287 359 256 368 228 386 c 1
 235 304 237 218 237 117 c 0
 237 81 236 44 236 5 c 0
 236 -4 206 -25 183 -25 c 0
 169 -25 156 -17 156 5 c 0
 156 166 157 361 78 623 c 0
 76 628 75 632 75 636 c 0
EndSplineSet
Colour: ffda6b
EndChar

StartChar: _.num.4.fa
Encoding: 65615 -1 79
GlifName: _.num.4.fa
Width: 727
VWidth: 1331
GlyphClass: 2
Flags: HMW
LayerCount: 2
Fore
SplineSet
245 549 m 0
 245 665 335 724 424 724 c 0
 487 724 551 698 590 657 c 0
 600 647 592 640 582 626 c 2
 569 608 l 2
 564 601 554 595 543 601 c 0
 517 616 482 623 447 623 c 0
 399 623 352 609 326 582 c 1
 327 501 373 432 401 402 c 1
 480 412 561 442 607 460 c 0
 619 464 628 464 630 455 c 2
 646 410 l 2
 650 401 657 394 645 389 c 0
 534 327 438 298 358 298 c 0
 310 298 267 309 231 329 c 1
 235 263 237 193 237 115 c 0
 237 80 236 43 236 5 c 0
 236 -4 206 -25 183 -25 c 0
 169 -25 156 -17 156 5 c 0
 156 166 157 361 78 623 c 0
 76 628 75 632 75 636 c 0
 75 647 83 655 105 674 c 2
 135 702 l 2
 142 708 148 710 153 710 c 0
 160 710 164 704 167 693 c 0
 194 611 212 531 222 449 c 1
 236 431 255 417 278 410 c 1
 257 454 245 504 245 549 c 0
EndSplineSet
Colour: ffda6b
EndChar

StartChar: _.num.5.fa
Encoding: 65617 -1 81
GlifName: _.num.5.fa
Width: 680
VWidth: 1331
GlyphClass: 2
Flags: HMW
LayerCount: 2
Fore
SplineSet
75 162 m 0
 75 258 125 398 265 582 c 1
 253 592 239 603 225 613 c 0
 205 629 215 637 217 641 c 2
 250 694 l 2
 254 700 257 708 265 708 c 0
 269 708 275 706 283 699 c 0
 428 576 605 379 605 162 c 0
 605 45 530 -6 458 -6 c 0
 405 -6 354 22 336 71 c 1
 303 23 254 0 208 -0 c 0
 139 0 75 53 75 162 c 0
460 113 m 0
 494 113 522 133 522 164 c 0
 522 253 467 386 331 521 c 1
 202 355 161 244 161 179 c 0
 161 126 188 103 219 103 c 0
 258 103 301 140 303 204 c 1
 303 210 l 2
 303 215 303 222 315 226 c 2
 366 240 l 1
 375 244 378 232 378 228 c 2
 378 220 l 1
 380 142 422 113 460 113 c 0
EndSplineSet
Colour: ffda6b
EndChar

StartChar: _.num.6.fa
Encoding: 65619 -1 83
GlifName: _.num.6.fa
Width: 633
VWidth: 1331
GlyphClass: 2
Flags: HMW
LayerCount: 2
Fore
SplineSet
75 -5 m 0
 75 -4 76 -4 76 -3 c 0
 158 156 207 246 281 317 c 1
 188 346 141 428 141 498 c 0
 141 505 141 512 142 518 c 0
 161 650 271 707 372 707 c 0
 404 707 434 701 461 690 c 0
 473 685 471 677 467 660 c 2
 462 638 l 1
 459 618 442 621 420 621 c 0
 349 621 248 594 220 514 c 1
 252 445 285 406 381 396 c 1
 420 422 467 447 524 477 c 0
 529 480 534 482 538 482 c 0
 546 482 551 476 552 461 c 2
 556 420 l 2
 557 408 558 399 558 392 c 0
 558 376 554 370 540 364 c 0
 342 279 261 200 147 -40 c 0
 141 -53 132 -58 124 -58 c 0
 101 -58 75 -18 75 -5 c 0
EndSplineSet
Colour: ffda6b
EndChar

StartChar: _.num.7
Encoding: 65621 -1 85
GlifName: _.num.7
Width: 654
VWidth: 1331
GlyphClass: 2
Flags: HMW
LayerCount: 2
Fore
SplineSet
75 615 m 0
 75 624 81 634 96 655 c 1
 122 687 l 2
 128 695 134 699 139 699 c 0
 145 699 150 694 154 686 c 0
 214 580 296 363 318 228 c 1
 348 363 440 578 499 684 c 0
 504 692 509 697 515 697 c 0
 520 697 525 694 532 686 c 2
 557 654 l 2
 573 634 579 624 579 614 c 0
 579 609 577 604 574 597 c 0
 487 435 360 193 359 5 c 0
 358 -1 326 -17 302 -17 c 0
 288 -17 277 -11 277 5 c 0
 276 192 169 437 80 598 c 0
 76 605 75 610 75 615 c 0
EndSplineSet
Colour: ffda6b
EndChar

StartChar: _.num.8
Encoding: 65622 -1 86
GlifName: _.num.8
Width: 654
VWidth: 1331
GlyphClass: 2
Flags: HMW
LayerCount: 2
Fore
SplineSet
75 66 m 0
 75 71 76 77 80 84 c 0
 169 245 276 490 277 677 c 0
 277 693 288 699 302 699 c 0
 326 699 358 683 359 677 c 0
 360 489 487 247 574 85 c 0
 577 78 579 72 579 67 c 0
 579 57 573 48 557 28 c 2
 532 -4 l 2
 525 -12 520 -16 515 -16 c 0
 509 -16 504 -11 499 -3 c 0
 440 103 348 319 318 453 c 1
 296 319 214 102 154 -4 c 0
 150 -12 145 -17 139 -17 c 0
 134 -17 128 -13 122 -5 c 2
 96 27 l 1
 81 48 75 57 75 66 c 0
EndSplineSet
Colour: ffda6b
EndChar

StartChar: _.num.9
Encoding: 65623 -1 87
GlifName: _.num.9
Width: 561
VWidth: 1331
GlyphClass: 2
Flags: HMW
LayerCount: 2
Fore
SplineSet
75 479 m 0
 75 578 126 699 233 699 c 0
 234 699 l 0
 379 699 410 507 417 386 c 1
 428 290 448 184 484 63 c 0
 486 58 486 53 486 49 c 0
 486 38 479 30 457 11 c 2
 426 -16 l 2
 419 -22 414 -25 409 -25 c 0
 402 -25 397 -19 394 -9 c 0
 356 108 338 215 331 337 c 1
 301 326 271 320 241 320 c 0
 152 320 75 372 75 479 c 0
144 477 m 0
 144 435 188 421 236 421 c 0
 267 421 300 427 322 437 c 1
 317 507 297 585 219 599 c 1
 173 599 144 525 144 477 c 0
EndSplineSet
Colour: ffda6b
EndChar

StartChar: _.sing.backslash
Encoding: 65624 -1 88
GlifName: _.sing.backslash
Width: 553
VWidth: 1197
GlyphClass: 2
Flags: HMW
LayerCount: 2
Fore
SplineSet
75 800 m 1
 176 800 l 1
 478 -1 l 1
 377 -1 l 1
 75 800 l 1
EndSplineSet
Colour: ffda6b
EndChar

StartChar: _.sing.slash
Encoding: 65625 -1 89
GlifName: _.sing.slash
Width: 491
VWidth: 1197
GlyphClass: 2
Flags: HMW
LayerCount: 2
Fore
SplineSet
75 -1 m 1
 315 700 l 1
 416 700 l 1
 176 -1 l 1
 75 -1 l 1
EndSplineSet
Colour: ffda6b
EndChar

StartChar: _.sing.tajob
Encoding: 65626 -1 90
GlifName: _.sing.tajob
Width: 315
VWidth: 1197
GlyphClass: 2
Flags: HMW
LayerCount: 2
Fore
SplineSet
75 84 m 1
 157 166 l 1
 240 84 l 1
 157 1 l 1
 75 84 l 1
101 795 m 1
 199 795 l 1
 183 260 l 1
 117 260 l 1
 101 795 l 1
EndSplineSet
Colour: ffda6b
EndChar

StartChar: _.sing.soal
Encoding: 65627 -1 91
GlifName: _.sing.soal
Width: 531
VWidth: 1304
GlyphClass: 2
Flags: HMW
LayerCount: 2
Fore
SplineSet
75 612 m 0
 75 733 179 802 276 802 c 0
 360 802 441 754 456 657 c 1
 456 541 l 1
 360 541 l 1
 360 631 354 700 256 700 c 0
 217 700 176 674 176 625 c 0
 176 598 187 565 217 525 c 0
 298 419 336 403 336 253 c 1
 229 253 l 1
 229 282 l 2
 229 423 75 482 75 612 c 0
203 84 m 1
 286 166 l 1
 368 84 l 1
 286 1 l 1
 203 84 l 1
EndSplineSet
Colour: ffda6b
EndChar

StartChar: _.sing.beezafeh
Encoding: 65628 -1 92
GlifName: _.sing.beezafeh
Width: 550
VWidth: 1352
GlyphClass: 2
Flags: HMW
LayerCount: 2
Fore
SplineSet
75 250 m 1
 75 351 l 1
 225 351 l 1
 225 501 l 1
 325 501 l 1
 325 351 l 1
 475 351 l 1
 475 250 l 1
 325 250 l 1
 325 101 l 1
 225 101 l 1
 225 250 l 1
 75 250 l 1
EndSplineSet
Colour: ffda6b
EndChar

StartChar: _.sing.menha
Encoding: 65629 -1 93
GlifName: _.sing.menha
Width: 550
VWidth: 0
GlyphClass: 2
Flags: HMW
LayerCount: 2
Fore
SplineSet
75 250 m 1
 75 351 l 1
 475 351 l 1
 475 250 l 1
 75 250 l 1
EndSplineSet
Colour: ffda6b
EndChar

StartChar: _.sing.khateh_tire
Encoding: 65630 -1 94
GlifName: _.sing.khateh_tire
Width: 250
VWidth: 0
GlyphClass: 2
Flags: HMW
LayerCount: 2
Fore
SplineSet
75 -100 m 1
 75 300 l 1
 175 300 l 1
 175 -100 l 1
 75 -100 l 1
75 401 m 1
 75 801 l 1
 175 801 l 1
 175 401 l 1
 75 401 l 1
EndSplineSet
Colour: ffda6b
EndChar

StartChar: _.sing.virgul
Encoding: 65631 -1 95
GlifName: _.sing.virgul
Width: 282
VWidth: 1197
GlyphClass: 2
Flags: HMW
LayerCount: 2
Fore
SplineSet
146 0 m 0
 98 0 75 53 75 99 c 0
 75 160 113 228 170 283 c 1
 207 246 l 1
 187 225 159 195 159 161 c 0
 159 140 173 119 192 100 c 0
 201 90 207 75 207 60 c 0
 207 27 179 0 146 0 c 0
EndSplineSet
Colour: ffda6b
EndChar

StartChar: _.sing.dot_virgul
Encoding: 65632 -1 96
GlifName: _.sing.dot_virgul
Width: 315
VWidth: 1304
GlyphClass: 2
Flags: HMW
LayerCount: 2
Fore
SplineSet
75 84 m 1
 157 166 l 1
 240 84 l 1
 157 1 l 1
 75 84 l 1
160 250 m 0
 112 250 89 304 89 349 c 0
 89 410 126 478 183 533 c 1
 220 496 l 1
 200 475 173 445 173 411 c 0
 173 390 186 368 205 349 c 0
 214 339 220 326 220 310 c 0
 220 277 193 250 160 250 c 0
EndSplineSet
Colour: ffda6b
EndChar

StartChar: _.sing.2noqte
Encoding: 65633 -1 97
GlifName: _.sing.2noqte
Width: 315
VWidth: 1352
GlyphClass: 2
Flags: HMW
LayerCount: 2
Fore
SplineSet
75 84 m 1
 157 166 l 1
 240 84 l 1
 157 1 l 1
 75 84 l 1
75 324 m 1
 157 407 l 1
 240 324 l 1
 157 241 l 1
 75 324 l 1
EndSplineSet
Colour: ffda6b
EndChar

StartChar: _.sing.noqte
Encoding: 65634 -1 98
GlifName: _.sing.noqte
Width: 316
VWidth: 1352
GlyphClass: 2
Flags: HMW
LayerCount: 2
Fore
SplineSet
75 84 m 5
 159 166 l 5
 241 84 l 5
 159 1 l 5
 75 84 l 5
EndSplineSet
Colour: ffda6b
EndChar

StartChar: _.sing.gheiomeh.right
Encoding: 65635 -1 99
GlifName: _.sing.gheiomeh.right
Width: 501
VWidth: 1352
GlyphClass: 2
Flags: HMW
LayerCount: 2
Fore
SplineSet
75 199 m 1
 207 412 l 1
 256 379 l 1
 145 198 l 1
 252 15 l 1
 202 -22 l 1
 75 199 l 1
245 199 m 1
 377 412 l 1
 426 379 l 1
 315 198 l 1
 422 15 l 1
 372 -22 l 1
 245 199 l 1
EndSplineSet
Colour: ffda6b
EndChar

StartChar: _.sing.gheiomeh.left
Encoding: 65636 -1 100
GlifName: _.sing.gheiomeh.left
Width: 501
VWidth: 1352
GlyphClass: 2
Flags: HMW
LayerCount: 2
Fore
SplineSet
75 379 m 1
 124 412 l 1
 255 199 l 1
 128 -22 l 1
 79 15 l 1
 185 198 l 1
 75 379 l 1
245 379 m 1
 294 412 l 1
 426 199 l 1
 299 -22 l 1
 249 15 l 1
 354 198 l 1
 245 379 l 1
EndSplineSet
Colour: ffda6b
EndChar

StartChar: _.sing.parantez.right
Encoding: 65637 -1 101
GlifName: _.sing.parantez.right
Width: 366
VWidth: 1352
GlyphClass: 2
Flags: HMW
LayerCount: 2
Fore
SplineSet
75 334 m 0
 75 487 127 643 240 800 c 1
 291 750 l 1
 205 625 162 479 162 334 c 0
 162 189 205 45 291 -79 c 1
 239 -128 l 1
 132 19 75 175 75 334 c 0
EndSplineSet
Colour: ffda6b
EndChar

StartChar: _.sing.parantez.left
Encoding: 65638 -1 102
GlifName: _.sing.parantez.left
Width: 366
VWidth: 1352
GlyphClass: 2
Flags: HMW
LayerCount: 2
Fore
SplineSet
75 750 m 1
 125 800 l 1
 238 643 291 486 291 333 c 0
 291 174 234 19 128 -128 c 1
 76 -79 l 1
 161 45 204 189 204 334 c 0
 204 479 161 625 75 750 c 1
EndSplineSet
Colour: ffda6b
EndChar

StartChar: _.sing.parantez_tazeeni.right
Encoding: 65639 -1 103
GlifName: _.sing.parantez_tazeeni.right
Width: 553
VWidth: 0
GlyphClass: 2
Flags: HMW
LayerCount: 2
Fore
SplineSet
75 342 m 1
 97 410 l 1
 148 393 l 2
 164 388 180 381 197 375 c 0
 204 371 212 367 221 365 c 1
 225 393 231 423 241 453 c 1
 241 513 l 1
 263 513 l 1
 294 589 341 669 404 759 c 1
 446 719 l 1
 372 612 330 488 319 361 c 1
 346 372 376 384 404 393 c 2
 454 410 l 1
 478 342 l 1
 426 326 l 2
 394 316 358 308 324 298 c 1
 347 272 369 244 390 216 c 2
 422 173 l 1
 364 132 l 1
 334 175 l 2
 332 180 327 183 325 187 c 1
 341 77 382 -28 446 -122 c 1
 405 -160 l 1
 313 -27 254 85 229 191 c 1
 227 186 223 180 219 175 c 2
 187 132 l 1
 130 173 l 1
 161 216 l 1
 179 239 199 263 217 285 c 1
 217 301 l 1
 186 308 157 316 127 326 c 2
 75 342 l 1
EndSplineSet
Colour: ffda6b
EndChar

StartChar: _.sing.koroshe.right
Encoding: 65641 -1 105
GlifName: _.sing.koroshe.right
Width: 357
VWidth: 1197
GlyphClass: 2
Flags: HMW
LayerCount: 2
Fore
SplineSet
75 -202 m 1
 75 798 l 1
 282 798 l 1
 282 714 l 1
 166 714 l 1
 166 -117 l 1
 282 -117 l 1
 282 -202 l 1
 75 -202 l 1
EndSplineSet
Colour: ffda6b
EndChar

StartChar: _.sing.koroshe.left
Encoding: 65642 -1 106
GlifName: _.sing.koroshe.left
Width: 357
VWidth: 1197
GlyphClass: 2
Flags: HMW
LayerCount: 2
Fore
SplineSet
75 -117 m 1
 191 -117 l 1
 191 714 l 1
 75 714 l 1
 75 798 l 1
 282 798 l 1
 282 -202 l 1
 75 -202 l 1
 75 -117 l 1
EndSplineSet
Colour: ffda6b
EndChar

StartChar: _.sing.akolad.right
Encoding: 65643 -1 107
GlifName: _.sing.akolad.right
Width: 455
VWidth: 1197
GlyphClass: 2
Flags: HMW
LayerCount: 2
Fore
SplineSet
75 262 m 1
 75 288 75 314 75 340 c 1
 81 340 86 339 92 339 c 0
 132 339 173 348 173 498 c 2
 173 636 l 2
 173 759 209 800 380 800 c 1
 380 714 l 1
 285 714 267 700 265 598 c 1
 265 454 l 1
 261 325 208 309 169 300 c 1
 208 293 260 284 262 155 c 1
 262 2 l 1
 263 -99 285 -113 380 -113 c 1
 380 -200 l 1
 288 -200 l 2
 194 -200 173 -132 173 -35 c 2
 173 103 l 2
 173 273 119 261 75 262 c 1
EndSplineSet
Colour: ffda6b
EndChar

StartChar: _.sing.akolad.left
Encoding: 65644 -1 108
GlifName: _.sing.akolad.left
Width: 455
VWidth: 1197
GlyphClass: 2
Flags: HMW
LayerCount: 2
Fore
SplineSet
75 262 m 1
 75 288 75 314 75 340 c 1
 81 340 86 339 92 339 c 0
 132 339 173 348 173 498 c 2
 173 636 l 2
 173 759 209 800 380 800 c 1
 380 714 l 1
 285 714 266 700 265 598 c 1
 265 447 l 1
 263 317 208 309 169 300 c 1
 208 293 258 277 262 148 c 1
 262 2 l 1
 264 -99 285 -113 380 -113 c 1
 380 -198 l 1
 209 -198 173 -159 173 -35 c 2
 173 103 l 2
 173 273 119 261 75 262 c 1
EndSplineSet
Colour: ffda6b
EndChar

StartChar: _.mark.maad
Encoding: 65645 -1 109
GlifName: _.mark.maad
Width: 0
VWidth: 1352
GlyphClass: 2
Flags: HMW
LayerCount: 2
Fore
SplineSet
0 26 m 1
 32 92 l 2
 44 119 64 138 89 138 c 0
 95 138 101 137 107 135 c 0
 146 124 179 119 210 119 c 0
 259 119 302 131 359 148 c 1
 366 74 l 1
 310 55 261 42 210 42 c 0
 172 42 131 49 86 65 c 1
 75 45 65 22 54 -0 c 1
 0 26 l 1
EndSplineSet
Colour: ffda6b
EndChar

StartChar: _.mark.fatheh
Encoding: 65646 -1 110
GlifName: _.mark.fatheh
Width: 0
VWidth: 2310
GlyphClass: 2
Flags: HMW
LayerCount: 2
Fore
SplineSet
0 45 m 1
 256 165 l 1
 278 114 l 1
 23 -5 l 1
 0 45 l 1
EndSplineSet
Colour: ffda6b
EndChar

StartChar: _.mark.kasreh
Encoding: 65647 -1 111
GlifName: _.mark.kasreh
Width: 0
VWidth: 2384
GlyphClass: 2
Flags: HMW
LayerCount: 2
Fore
SplineSet
0 -125 m 1
 256 -6 l 1
 278 -56 l 1
 23 -175 l 1
 0 -125 l 1
EndSplineSet
Colour: ffda6b
EndChar

StartChar: _.mark.zameh
Encoding: 65648 -1 112
GlifName: _.mark.zameh
Width: 0
VWidth: 2277
GlyphClass: 2
Flags: HMW
LayerCount: 2
Fore
SplineSet
202 287 m 0
 247 287 279 243 279 196 c 0
 279 155 255 109 193 80 c 2
 23 1 l 1
 0 50 l 1
 143 117 l 1
 124 139 111 165 111 193 c 0
 111 242 146 287 202 287 c 0
165 193 m 0
 165 179 172 164 179 155 c 2
 191 140 l 1
 215 153 229 173 229 191 c 0
 229 206 219 220 197 228 c 1
 173 223 165 208 165 193 c 0
EndSplineSet
Colour: ffda6b
EndChar

StartChar: _.mark.tanvin_fatheh
Encoding: 65649 -1 113
GlifName: _.mark.tanvin_fatheh
Width: 0
VWidth: 2280
GlyphClass: 2
Flags: HMW
LayerCount: 2
Fore
SplineSet
0 49 m 1
 256 168 l 1
 279 118 l 1
 23 -0 l 1
 0 49 l 1
0 170 m 1
 256 289 l 1
 279 240 l 1
 23 120 l 1
 0 170 l 1
EndSplineSet
Colour: ffda6b
EndChar

StartChar: _.mark.tanvin_kasreh
Encoding: 65650 -1 114
GlifName: _.mark.tanvin_kasreh
Width: 0
VWidth: 2413
GlyphClass: 2
Flags: HMW
LayerCount: 2
Fore
SplineSet
0 -120 m 1
 256 -1 l 1
 279 -51 l 1
 23 -170 l 1
 0 -120 l 1
0 -240 m 1
 256 -122 l 1
 279 -171 l 1
 23 -291 l 1
 0 -240 l 1
EndSplineSet
Colour: ffda6b
EndChar

StartChar: _.mark.tanvin_zameh
Encoding: 65651 -1 115
GlifName: _.mark.tanvin_zameh
Width: 0
VWidth: 2273
GlyphClass: 2
Flags: HMW
LayerCount: 2
Fore
SplineSet
226 287 m 0
 271 287 304 243 304 196 c 0
 304 155 280 109 218 80 c 2
 48 1 l 1
 25 50 l 1
 66 70 l 1
 70 79 73 90 73 100 c 0
 73 114 68 125 56 125 c 0
 52 125 48 125 43 122 c 2
 25 111 l 1
 0 151 l 1
 21 164 l 2
 32 170 42 172 51 172 c 0
 88 172 109 130 109 100 c 0
 109 96 109 93 108 90 c 1
 167 117 l 1
 148 139 136 165 136 193 c 0
 136 242 170 287 226 287 c 0
189 193 m 0
 189 179 196 164 203 155 c 2
 215 140 l 1
 239 153 253 173 253 191 c 0
 253 206 244 220 222 228 c 1
 198 223 189 208 189 193 c 0
EndSplineSet
Colour: ffda6b
EndChar

StartChar: _.mark.tashdid
Encoding: 65652 -1 116
GlifName: _.mark.tashdid
Width: 0
VWidth: 1833
GlyphClass: 2
Flags: HMW
LayerCount: 2
Fore
SplineSet
0 91 m 0
 0 112 3 137 10 168 c 1
 54 164 l 1
 47 139 44 118 44 102 c 0
 44 73 54 59 67 59 c 0
 88 59 116 97 119 171 c 1
 161 171 l 1
 162 101 182 70 201 70 c 0
 218 70 233 94 233 138 c 0
 233 152 231 167 228 184 c 1
 275 188 l 1
 278 166 280 146 280 129 c 0
 280 41 240 12 203 12 c 0
 174 12 145 29 140 50 c 1
 130 26 94 3 61 3 c 0
 29 3 0 25 0 91 c 0
EndSplineSet
Colour: ffda6b
EndChar

StartChar: _.mark.hamze
Encoding: 65653 -1 117
GlifName: _.mark.hamze
Width: 0
VWidth: 1841
GlyphClass: 2
Flags: HMW
LayerCount: 2
Fore
SplineSet
0 49 m 1
 74 84 l 1
 47 106 34 138 34 170 c 0
 34 228 75 286 147 286 c 0
 167 286 189 282 213 272 c 1
 202 223 l 1
 185 227 170 229 157 229 c 0
 107 229 84 201 84 171 c 0
 84 146 99 121 127 108 c 1
 256 168 l 1
 278 118 l 1
 23 -0 l 1
 0 49 l 1
EndSplineSet
Colour: ffda6b
EndChar

StartChar: _.mark.sakon
Encoding: 65654 -1 118
GlifName: _.mark.sakon
Width: 0
VWidth: 2099
GlyphClass: 2
Flags: HMW
LayerCount: 2
Fore
SplineSet
81 -0 m 0
 35 0 0 39 0 85 c 0
 0 132 34 168 81 168 c 0
 122 168 144 146 158 118 c 0
 162 108 164 97 164 85 c 0
 164 47 142 18 113 7 c 0
 103 2 93 0 81 -0 c 0
80 120 m 0
 60 120 43 104 43 84 c 0
 43 64 60 47 80 47 c 0
 100 47 118 63 118 84 c 0
 118 104 100 120 80 120 c 0
EndSplineSet
Colour: ffda6b
EndChar

StartChar: _.mark.alef
Encoding: 65655 -1 119
GlifName: _.mark.alef
Width: 0
VWidth: 2091
GlyphClass: 2
Flags: HMW
LayerCount: 2
Fore
SplineSet
0 216 m 1
 50 235 l 1
 81 151 89 92 89 -3 c 1
 41 -3 l 1
 41 83 28 140 0 216 c 1
EndSplineSet
Colour: ffda6b
EndChar

StartChar: _.sing.momaiez
Encoding: 65656 -1 120
GlifName: _.sing.momaiez
Width: 458
VWidth: 1352
GlyphClass: 2
Flags: HMW
LayerCount: 2
Fore
SplineSet
75 -173 m 1
 288 412 l 1
 383 378 l 1
 169 -207 l 1
 75 -173 l 1
EndSplineSet
Colour: ffda6b
EndChar

StartChar: _.sing.hezare
Encoding: 65657 -1 121
GlifName: _.sing.hezare
Width: 272
VWidth: 1197
GlyphClass: 2
Flags: HMW
LayerCount: 2
Fore
SplineSet
75 900 m 1
 197 900 l 1
 155 700 l 1
 116 700 l 1
 75 900 l 1
EndSplineSet
Colour: ffda6b
EndChar

StartChar: _.sing.darsad
Encoding: 65658 -1 122
GlifName: _.sing.darsad
Width: 715
VWidth: 1197
GlyphClass: 2
Flags: HMW
LayerCount: 2
Fore
SplineSet
75 587 m 1
 157 670 l 1
 240 587 l 1
 157 505 l 1
 75 587 l 1
156 -1 m 1
 458 800 l 1
 559 800 l 1
 257 -1 l 1
 156 -1 l 1
474 244 m 1
 558 326 l 1
 640 244 l 1
 558 161 l 1
 474 244 l 1
EndSplineSet
Colour: ffda6b
EndChar

StartChar: _.sing.mosavi
Encoding: 65659 -1 123
GlifName: _.sing.mosavi
Width: 550
VWidth: 1197
GlyphClass: 2
Flags: HMW
LayerCount: 2
Fore
SplineSet
75 200 m 1
 75 300 l 1
 475 300 l 1
 475 200 l 1
 75 200 l 1
75 400 m 1
 75 501 l 1
 474 501 l 1
 474 400 l 1
 75 400 l 1
EndSplineSet
Colour: ffda6b
EndChar

StartChar: _.beh_k.init
Encoding: 65661 -1 125
GlifName: _.beh_k.init
Width: 330
VWidth: 1197
GlyphClass: 2
UnlinkRmOvrlpSave: 1
Flags: HMW
LayerCount: 2
Fore
SplineSet
-50 49 m 0
 -50 76 -27 100 -1 100 c 2
 58 100 l 2
 128 100 177 114 205 135 c 1
 203 189 190 255 163 324 c 0
 159 340 166 347 172 351 c 1
 221 394 l 2
 233 405 241 394 243 388 c 0
 261 334 280 270 280 208 c 0
 280 172 274 137 258 104 c 0
 228 35 169 0 79 -0 c 2
 -1 -0 l 2
 -25 0 -50 24 -50 49 c 0
EndSplineSet
Colour: ffda6b
EndChar

StartChar: _.beh_k.medi
Encoding: 65662 -1 126
GlifName: _.beh_k.medi
Width: 434
VWidth: 1304
GlyphClass: 2
UnlinkRmOvrlpSave: 1
Flags: HMW
LayerCount: 2
Fore
SplineSet
-50 50 m 0
 -50 76 -26 100 0 100 c 2
 50 100 l 2
 128 100 187 112 217 146 c 1
 214 164 212 184 212 205 c 0
 212 224 214 243 216 264 c 0
 217 271 217 280 227 284 c 2
 255 295 l 2
 269 300 274 293 274 283 c 0
 274 276 273 269 273 263 c 0
 273 137 319 100 414 100 c 2
 434 100 l 1
 434 -0 l 1
 410 -0 l 2
 331 0 281 21 250 60 c 1
 207 10 136 0 42 -0 c 2
 0 -0 l 2
 -25 0 -50 24 -50 50 c 0
EndSplineSet
Colour: ffda6b
EndChar

StartChar: _.sing.3noqte
Encoding: 65663 -1 127
GlifName: _.sing.3noqte
Width: 766
VWidth: 1304
GlyphClass: 2
Flags: HMW
LayerCount: 2
Fore
SplineSet
75 84 m 1
 159 166 l 1
 240 84 l 1
 159 1 l 1
 75 84 l 1
305 84 m 1
 389 166 l 1
 470 84 l 1
 389 1 l 1
 305 84 l 1
526 84 m 1
 608 166 l 1
 691 84 l 1
 608 1 l 1
 526 84 l 1
EndSplineSet
Colour: ffda6b
EndChar

StartChar: s.khat_tire
Encoding: 8208 8208 138
GlifName: s.khat_tire
Width: 504
VWidth: 0
GlyphClass: 2
Flags: HMW
LayerCount: 2
Fore
SplineSet
55 229 m 1
 55 307 l 1
 451 307 l 1
 451 229 l 1
 55 229 l 1
EndSplineSet
Colour: d7d7d7
EndChar

StartChar: s.zwj
Encoding: 8205 8205 174
GlifName: s.zwj
Width: 0
VWidth: 1331
GlyphClass: 2
Flags: HMW
LayerCount: 2
Fore
SplineSet
25 -327 m 1
 -25 -327 l 1
 -25 579 l 1
 -111 491 l 1
 -141 521 l 1
 -30 631 l 1
 -141 740 l 1
 -111 772 l 1
 0 660 l 1
 111 772 l 1
 141 740 l 1
 30 631 l 1
 141 521 l 1
 111 491 l 1
 25 579 l 1
 25 -327 l 1
EndSplineSet
Colour: d7d7d7
EndChar

StartChar: s.tagsim
Encoding: 247 247 182
GlifName: s.tagsim
Width: 564
VWidth: 1278
GlyphClass: 2
Flags: HMW
LayerCount: 2
Fore
SplineSet
59 352 m 1
 59 429 l 1
 506 429 l 1
 506 352 l 1
 59 352 l 1
234 204 m 1
 234 299 l 1
 330 299 l 1
 330 204 l 1
 234 204 l 1
234 482 m 1
 234 577 l 1
 330 577 l 1
 330 482 l 1
 234 482 l 1
EndSplineSet
Colour: d7d7d7
EndChar

StartChar: s.zwnj
Encoding: 8204 8204 215
GlifName: s.zwnj
Width: 0
VWidth: 1331
GlyphClass: 2
Flags: HMW
LayerCount: 2
Fore
SplineSet
-25 -308 m 1
 -25 710 l 1
 25 710 l 1
 25 -308 l 1
 -25 -308 l 1
EndSplineSet
Colour: d7d7d7
EndChar

StartChar: s.dotted_circle
Encoding: 9676 9676 220
GlifName: s.dotted_circle
Width: 576
VWidth: 1890
GlyphClass: 2
Flags: HMW
LayerCount: 2
Fore
SplineSet
60 181 m 0
 60 196 67 203 82 203 c 0
 97 203 104 196 104 182 c 2
 104 180 l 2
 104 166 97 159 82 159 c 0
 67 159 60 166 60 181 c 0
76 103 m 0
 76 118 83 126 98 126 c 0
 113 126 120 118 120 103 c 0
 120 88 113 80 98 80 c 0
 83 80 76 88 76 103 c 0
76 259 m 0
 76 274 83 282 98 282 c 0
 113 282 120 274 120 259 c 0
 120 244 113 236 99 236 c 0
 84 236 76 244 76 259 c 0
120 34 m 0
 120 49 127 56 142 57 c 0
 157 56 164 49 165 34 c 0
 164 19 157 12 142 12 c 0
 127 12 120 19 120 34 c 0
120 326 m 0
 120 341 127 348 142 349 c 0
 157 348 164 341 165 326 c 0
 164 311 157 304 142 304 c 0
 127 304 120 311 120 326 c 0
187 -8 m 0
 187 7 195 14 210 14 c 0
 225 14 233 7 233 -8 c 0
 233 -23 225 -30 210 -30 c 0
 195 -30 187 -23 187 -8 c 0
187 372 m 0
 187 387 195 394 210 394 c 0
 225 394 233 387 233 372 c 0
 233 357 225 350 210 350 c 0
 195 350 187 357 187 372 c 0
310 -26 m 0
 310 -41 303 -48 288 -48 c 0
 273 -48 266 -41 265 -26 c 0
 266 -11 273 -4 288 -3 c 0
 303 -4 310 -11 310 -26 c 0
288 410 m 0
 303 410 310 403 310 388 c 0
 310 373 303 366 288 365 c 0
 273 366 266 373 265 388 c 0
 266 403 273 410 288 410 c 0
344 -8 m 0
 344 7 352 14 367 14 c 0
 382 14 390 7 390 -8 c 0
 390 -22 382 -30 367 -31 c 0
 352 -30 344 -22 344 -8 c 0
344 372 m 0
 344 387 352 394 367 394 c 0
 382 394 390 387 390 372 c 0
 390 358 382 350 367 349 c 0
 352 350 344 358 344 372 c 0
412 34 m 0
 412 49 419 56 434 57 c 0
 449 56 456 49 456 34 c 0
 456 19 449 12 434 12 c 0
 419 12 412 19 412 34 c 0
412 326 m 0
 412 341 419 348 434 349 c 0
 449 348 456 341 456 326 c 0
 456 311 449 304 434 304 c 0
 419 304 412 311 412 326 c 0
456 103 m 0
 456 118 463 126 478 126 c 0
 492 126 500 118 501 103 c 0
 500 88 492 80 478 80 c 0
 463 80 456 88 456 103 c 0
456 259 m 0
 456 274 463 282 478 282 c 0
 492 282 500 274 501 259 c 0
 500 244 492 236 478 236 c 0
 463 236 456 244 456 259 c 0
472 181 m 0
 472 196 479 203 494 203 c 0
 509 203 516 196 517 182 c 2
 517 180 l 2
 516 166 509 159 494 159 c 0
 479 159 472 166 472 181 c 0
EndSplineSet
Colour: d7d7d7
EndChar

StartChar: s.figure_dash
Encoding: 8210 8210 224
GlifName: s.figure_dash
Width: 600
VWidth: 0
GlyphClass: 2
Flags: HMW
LayerCount: 2
Fore
SplineSet
55 229 m 1
 55 307 l 1
 547 307 l 1
 547 229 l 1
 55 229 l 1
EndSplineSet
Colour: d7d7d7
EndChar

StartChar: s.em_dash
Encoding: 8212 8212 263
GlifName: s.em_dash
Width: 1200
VWidth: 1175
GlyphClass: 2
Flags: HMW
LayerCount: 2
Fore
SplineSet
55 229 m 1
 55 307 l 1
 1147 307 l 1
 1147 229 l 1
 55 229 l 1
EndSplineSet
Colour: d7d7d7
EndChar

StartChar: s.bullet
Encoding: 8226 8226 278
GlifName: s.bullet
Width: 602
VWidth: 1331
GlyphClass: 2
Flags: HMW
LayerCount: 2
Fore
SplineSet
532 432 m 0
 532 369 509 315 464 270 c 0
 419 225 365 202 302 202 c 0
 245 202 194 223 147 266 c 0
 100 309 77 357 77 410 c 0
 77 483 99 542 142 585 c 0
 185 628 236 650 295 650 c 0
 368 650 426 630 468 591 c 0
 510 552 532 499 532 432 c 0
EndSplineSet
Colour: d7d7d7
EndChar

StartChar: s.en_dash
Encoding: 8211 8211 310
GlifName: s.en_dash
Width: 600
VWidth: 1175
GlyphClass: 2
Flags: HMW
LayerCount: 2
Fore
SplineSet
55 229 m 1
 55 307 l 1
 547 307 l 1
 547 229 l 1
 55 229 l 1
EndSplineSet
Colour: d7d7d7
EndChar

StartChar: s.horizontal_bar
Encoding: 8213 8213 316
GlifName: s.horizontal_bar
Width: 2400
VWidth: 1175
GlyphClass: 2
Flags: HMW
LayerCount: 2
Fore
SplineSet
55 229 m 1
 55 307 l 1
 2347 307 l 1
 2347 229 l 1
 55 229 l 1
EndSplineSet
Colour: d7d7d7
EndChar

StartChar: s.lrm
Encoding: 8206 8206 317
GlifName: s.lrm
Width: 0
VWidth: 1331
GlyphClass: 2
Flags: HMW
LayerCount: 2
Fore
SplineSet
-25 -308 m 1
 -25 676 l 1
 196 676 l 1
 106 759 l 1
 138 790 l 1
 280 651 l 1
 138 510 l 1
 106 544 l 1
 196 628 l 1
 22 628 l 1
 22 -308 l 1
 -25 -308 l 1
EndSplineSet
Colour: d7d7d7
EndChar

StartChar: s.rlm
Encoding: 8207 8207 346
GlifName: s.rlm
Width: 0
VWidth: 1331
GlyphClass: 2
Flags: HMW
LayerCount: 2
Fore
SplineSet
22 676 m 1
 22 -308 l 1
 -25 -308 l 1
 -25 628 l 1
 -196 628 l 1
 -108 544 l 1
 -138 510 l 1
 -280 651 l 1
 -138 790 l 1
 -108 759 l 1
 -196 676 l 1
 22 676 l 1
EndSplineSet
Colour: d7d7d7
EndChar

StartChar: _.sing.yeh_domBoride
Encoding: 65664 -1 400
GlifName: _.mark.he_yeh
Width: 376
VWidth: 1304
GlyphClass: 1
UnlinkRmOvrlpSave: 1
Flags: HMW
LayerCount: 2
Fore
SplineSet
267 89 m 2
 267 90 l 2
 267 95 259 100 242 104 c 0
 228 107 219 109 216 109 c 0
 197 114 188 124 188 141 c 0
 188 176 210 207 253 234 c 0
 266 241 277 245 285 245 c 1
 285 200 l 1
 261 200 240 187 222 162 c 1
 220 156 l 2
 220 152 232 146 255 138 c 0
 280 130 293 124 296 120 c 0
 299 115 301 106 301 92 c 0
 301 77 294 62 281 49 c 0
 244 12 176 -6 75 -6 c 1
 92 42 l 1
 171 42 225 53 253 75 c 0
 262 82 267 87 267 89 c 2
EndSplineSet
EndChar

StartChar: uni0000
Encoding: 0 0 401
GlifName: uni0000
Width: 497
VWidth: 0
GlyphClass: 2
Flags: HMW
LayerCount: 2
Fore
SplineSet
59 -251 m 1
 59 709 l 1
 438 709 l 1
 438 -251 l 1
 59 -251 l 1
105 -181 m 1
 387 -181 l 1
 387 648 l 1
 105 648 l 1
 105 -181 l 1
EndSplineSet
EndChar

StartChar: _.ghaf.medi
Encoding: 65665 -1 402
GlifName: _.ghaf.medi
Width: 529
VWidth: 0
GlyphClass: 2
Flags: HMW
LayerCount: 2
Fore
SplineSet
-50 49 m 0
 -50 76 -27 99 -2 100 c 2
 108 100 l 2
 198 100 237 115 269 140 c 1
 257 210 196 315 13 480 c 0
 2 489 -5 503 -5 514 c 0
 -5 516 -5 519 -4 521 c 2
 12 569 l 2
 22 597 21 606 71 629 c 1
 440 738 l 2
 442 739 443 739 445 739 c 0
 451 739 454 735 454 727 c 0
 454 719 451 706 446 689 c 0
 435 655 431 635 414 630 c 2
 92 532 l 1
 150 478 198 428 236 384 c 0
 371 229 396 100 529 100 c 1
 529 -0 l 1
 527 0 524 0 522 -0 c 0
 427 0 369 51 318 118 c 1
 290 40 215 0 129 -0 c 2
 -1 -0 l 2
 -25 1 -50 24 -50 49 c 0
52 711 m 0
 52 727 72 760 81 763 c 2
 364 855 l 2
 365 855 366 856 367 856 c 0
 370 856 371 854 371 850 c 0
 371 835 347 796 329 790 c 2
 65 704 l 2
 63 703 61 703 59 703 c 0
 54 703 52 706 52 711 c 0
EndSplineSet
Colour: ffda6b
EndChar

StartChar: _.ghaf.init
Encoding: 65666 -1 403
GlifName: _.ghaf.init
Width: 504
VWidth: 0
GlyphClass: 2
Flags: HMW
LayerCount: 2
Fore
SplineSet
-50 48 m 0
 -50 74 -28 99 -2 100 c 1
 108 100 l 2
 198 100 237 115 269 140 c 1
 257 210 196 315 13 480 c 0
 2 489 -5 503 -5 514 c 0
 -5 516 -5 519 -4 521 c 2
 12 569 l 2
 22 597 21 606 71 629 c 1
 440 738 l 2
 442 739 443 739 445 739 c 0
 451 739 454 735 454 727 c 0
 454 719 451 706 446 689 c 0
 435 655 431 635 414 630 c 2
 92 532 l 1
 244 390 330 284 330 189 c 0
 330 66 239 0 129 -0 c 2
 -2 -0 l 1
 -26 1 -50 23 -50 48 c 0
52 711 m 0
 52 727 72 760 81 763 c 2
 364 855 l 2
 365 855 366 856 367 856 c 0
 370 856 371 854 371 850 c 0
 371 835 347 796 329 790 c 2
 65 704 l 2
 63 703 61 703 59 703 c 0
 54 703 52 706 52 711 c 0
EndSplineSet
Colour: ffda6b
EndChar

StartChar: _.la.isol.fa
Encoding: 65667 -1 404
Width: 562
VWidth: 0
Flags: HMW
LayerCount: 2
Fore
SplineSet
81 100 m 0
 100 100 121 97 140 97 c 0
 311 97 423 184 421 249 c 2
 404 715 l 2
 404 724 403 729 403 734 c 0
 403 744 406 748 419 759 c 2
 458 793 l 2
 464 798 470 800 474 800 c 0
 482 800 487 794 487 782 c 2
 487 220 l 2
 487 114 334 -1 212 -1 c 0
 161 -1 115 19 88 69 c 0
 80 84 75 93 75 97 c 0
 75 100 77 100 81 100 c 0
173 170 m 0
 173 181 174 192 174 203 c 0
 174 321 131 459 88 594 c 0
 86 600 84 606 84 610 c 0
 84 618 89 625 103 642 c 2
 125 670 l 2
 137 685 148 682 153 668 c 0
 189 563 238 392 238 277 c 0
 238 239 233 206 220 184 c 0
 216 177 194 154 182 154 c 0
 177 154 173 158 173 170 c 0
EndSplineSet
Colour: ffda6b
EndChar

StartChar: _.la.fina.fa
Encoding: 65668 -1 405
Width: 636
VWidth: 0
Flags: HMW
LayerCount: 2
Fore
SplineSet
81 100 m 0
 100 100 121 97 140 97 c 0
 302 97 411 173 421 237 c 1
 404 715 l 2
 404 724 403 729 403 734 c 0
 403 744 406 748 419 759 c 2
 458 793 l 2
 464 798 470 800 474 800 c 0
 482 800 487 794 487 782 c 2
 487 279 l 1
 497 172 557 100 636 100 c 1
 636 -0 l 1
 531 0 474 52 446 118 c 1
 391 51 295 -2 212 -2 c 0
 161 -2 115 19 88 69 c 0
 80 84 75 93 75 97 c 0
 75 100 77 100 81 100 c 0
173 170 m 0
 173 181 174 192 174 203 c 0
 174 321 131 459 88 594 c 0
 86 600 84 606 84 610 c 0
 84 618 89 625 103 642 c 2
 125 670 l 2
 137 685 148 682 153 668 c 0
 189 563 238 392 238 277 c 0
 238 239 233 206 220 184 c 0
 216 177 194 154 182 154 c 0
 177 154 173 158 173 170 c 0
EndSplineSet
Colour: ffda6b
EndChar

StartChar: _.sing.alef_maad
Encoding: 65671 -1 408
Width: 504
VWidth: 1352
Flags: HMW
LayerCount: 2
Fore
SplineSet
75 -33 m 0
 75 84 148 98 226 98 c 0
 251 98 276 97 299 97 c 0
 348 97 388 103 402 141 c 0
 404 147 410 150 414 149 c 0
 430 140 430 138 428 120 c 0
 417 15 354 -1 286 -1 c 0
 256 -1 224 2 196 2 c 0
 150 2 112 -6 97 -48 c 0
 95 -55 87 -53 81 -49 c 0
 77 -45 75 -43 75 -33 c 0
EndSplineSet
Colour: ffda6b
EndChar

StartChar: _.sing.star
Encoding: 65672 -1 409
Width: 553
VWidth: 1197
Flags: HMW
LayerCount: 2
Fore
SplineSet
75 543 m 1
 97 609 l 1
 148 593 l 2
 161 589 179 582 202 572 c 0
 225 562 240 557 246 555 c 1
 245 561 245 570 244 582 c 0
 243 594 243 603 242 609 c 0
 242 615 241 624 241 635 c 0
 241 646 241 655 241 660 c 2
 241 714 l 1
 311 714 l 1
 311 660 l 2
 311 623 309 588 305 555 c 1
 315 558 331 565 354 574 c 0
 377 583 393 590 404 593 c 2
 455 609 l 1
 478 543 l 1
 426 525 l 2
 415 522 398 518 375 512 c 0
 352 506 335 501 324 498 c 1
 330 491 352 464 390 417 c 1
 422 373 l 1
 366 332 l 1
 334 375 l 2
 314 402 295 432 277 463 c 1
 241 408 222 379 219 375 c 2
 187 332 l 1
 130 373 l 1
 161 417 l 2
 170 426 192 453 228 498 c 1
 217 501 200 506 177 512 c 0
 154 518 138 522 127 525 c 2
 75 543 l 1
EndSplineSet
Colour: ffda6b
EndChar

StartChar: _.sing.zarb
Encoding: 65673 -1 410
Width: 503
VWidth: 1279
Flags: HMW
LayerCount: 2
Fore
SplineSet
75 194 m 1
 181 300 l 1
 75 406 l 1
 146 477 l 1
 252 372 l 1
 358 477 l 1
 428 406 l 1
 322 300 l 1
 428 194 l 1
 358 123 l 1
 252 230 l 1
 146 123 l 1
 75 194 l 1
EndSplineSet
Colour: ffda6b
EndChar

StartChar: _.sing.khateh_amoodi
Encoding: 65674 -1 411
Width: 250
VWidth: 1331
Flags: HMW
LayerCount: 2
Fore
SplineSet
75 0 m 1
 75 341 l 1
 175 341 l 1
 175 0 l 1
 75 0 l 1
75 460 m 1
 75 801 l 1
 175 801 l 1
 175 460 l 1
 75 460 l 1
EndSplineSet
Colour: ffda6b
EndChar

StartChar: _.num.0.fa
Encoding: 65675 -1 412
Width: 373
VWidth: 1424
Flags: HW
LayerCount: 2
Fore
SplineSet
191 187 m 0
 112 187 75 256 75 322 c 0
 75 391 114 460 187 460 c 0
 259 460 298 387 298 317 c 0
 298 251 264 187 191 187 c 0
139 323 m 0
 139 294 155 264 186 264 c 0
 218 264 233 293 233 322 c 0
 233 352 217 382 186 383 c 0
 155 383 139 353 139 323 c 0
EndSplineSet
Colour: ffda6b
EndChar

StartChar: _.num.0.ar
Encoding: 65676 -1 413
Width: 372
VWidth: 1352
Flags: HW
LayerCount: 2
Fore
SplineSet
75 241 m 1
 118 271 156 308 186 352 c 1
 212 305 248 268 297 241 c 1
 256 211 218 176 186 130 c 1
 156 177 118 213 75 241 c 1
EndSplineSet
Colour: ffda6b
EndChar
